<svg width="64" height="64" viewBox="0 0 64 64" fill="none" xmlns="http://www.w3.org/2000/svg">
<path d="M63.5 32C63.5 49.397 49.397 63.5 32 63.5C14.603 63.5 0.5 49.397 0.5 32C0.5 14.603 14.603 0.5 32 0.5C49.397 0.5 63.5 14.603 63.5 32Z" fill="#FDF001" stroke="#E0E0E0"/>
<path d="M12.1279 52C12.1279 38.7145 12.1279 25.413 12.1279 12.1276C25.4134 12.1276 38.7148 12.1276 52.0003 12.1276C52.0003 25.413 52.0003 38.7145 52.0003 52C38.7148 52 25.4294 52 12.1279 52ZM32.1279 15.748C26.7053 19.3684 21.2826 23.0048 15.8281 26.6571C18.1407 28.1882 20.3895 29.6714 22.6223 31.1387C25.3337 29.3205 27.9971 27.5343 30.7244 25.7161C29.5282 24.9186 28.4118 24.169 27.2316 23.3875C28.7627 22.3349 30.23 21.3461 31.6973 20.3413C34.8871 22.5103 38.045 24.6315 41.2507 26.8166C36.0514 30.3413 30.9318 33.8182 25.7483 37.3269C26.8648 38.0765 27.9493 38.7942 29.0338 39.5438C35.4453 35.2376 41.8568 30.9473 48.3002 26.6252C42.8616 22.9569 37.5027 19.3684 32.1279 15.748ZM22.9254 37.3429C28.1407 33.8022 33.2603 30.3413 38.4437 26.8325C37.2954 26.067 36.2268 25.3493 35.1423 24.6315C28.6989 28.9697 22.3193 33.2759 15.8759 37.614C21.3145 41.2504 26.6574 44.8229 32.0322 48.4115C37.4708 44.791 42.8935 41.1866 48.3799 37.5343C46.0514 36.0032 43.8185 34.5199 41.5697 33.0367C38.8903 34.8229 36.2109 36.6252 33.4676 38.4593C34.6638 39.2567 35.7962 40.0063 36.9605 40.7878C35.4134 41.8405 33.9461 42.8293 32.4788 43.8341C29.289 41.6491 26.1471 39.5119 22.9254 37.3429ZM15.7802 48.5231C18.0928 47.0079 20.2938 45.5725 22.5267 44.0893C21.3624 43.3078 20.2619 42.5422 19.1614 41.8086C18.1088 42.5263 17.12 43.1802 16.1311 43.866C15.9876 43.9617 15.7962 44.1531 15.7962 44.2966C15.7643 45.6523 15.7802 47.0239 15.7802 48.5231ZM48.4437 15.8437C46.179 17.3429 44.0259 18.7623 41.8089 20.2296C42.9732 21.0271 44.0578 21.7767 45.1742 22.5422C46.1949 21.8564 47.2156 21.1866 48.2045 20.5008C48.3321 20.421 48.4278 20.2137 48.4278 20.0701C48.4597 18.7145 48.4437 17.3429 48.4437 15.8437Z" fill="#FDF001"/>
<path d="M32.1276 15.748C37.5024 19.3684 42.8613 22.9569 48.3158 26.6252C41.8725 30.9473 35.4769 35.2376 29.0495 39.5438C27.949 38.8102 26.8804 38.0925 25.764 37.3269C30.9474 33.8182 36.067 30.3413 41.2664 26.8166C38.0607 24.6475 34.9028 22.5103 31.713 20.3413C30.2457 21.3461 28.7784 22.3349 27.2473 23.3875C28.4275 24.169 29.5439 24.9186 30.7401 25.7161C28.0128 27.5343 25.3493 29.3206 22.638 31.1387C20.4052 29.6555 18.1564 28.1722 15.8438 26.6571C21.2823 23.0048 26.705 19.3843 32.1276 15.748Z" fill="#0261A8"/>
<path d="M22.9254 37.3429C26.1471 39.5279 29.305 41.6491 32.4788 43.8022C33.9461 42.7974 35.3975 41.8086 36.9605 40.756C35.7803 39.9745 34.6639 39.2249 33.4677 38.4274C36.2109 36.5933 38.8903 34.807 41.5697 33.0048C43.8186 34.488 46.0514 35.9553 48.38 37.5024C42.8935 41.1547 37.4709 44.7751 32.0323 48.3796C26.6575 44.7911 21.3146 41.2185 15.876 37.5821C22.3194 33.244 28.7149 28.9378 35.1423 24.5997C36.2109 25.3174 37.2954 26.0351 38.4438 26.8006C33.2603 30.3253 28.1407 33.8022 22.9254 37.3429Z" fill="#0262A8"/>
<path d="M15.7804 48.5231C15.7804 47.0239 15.7644 45.6682 15.7963 44.2966C15.7963 44.1531 15.9877 43.9617 16.1312 43.866C17.1041 43.1802 18.1089 42.5263 19.1615 41.8086C20.262 42.5582 21.3625 43.3078 22.5268 44.0893C20.278 45.5566 18.093 46.992 15.7804 48.5231Z" fill="#0462A8"/>
<path d="M48.4434 15.8437C48.4434 17.3429 48.4434 18.7145 48.4274 20.0702C48.4274 20.2137 48.3317 20.421 48.2041 20.5008C47.1993 21.1866 46.1946 21.8564 45.1738 22.5422C44.0574 21.7767 42.9729 21.0271 41.8086 20.2296C44.0414 18.7783 46.1786 17.3429 48.4434 15.8437Z" fill="#0362A8"/>
</svg>
