<svg width="64" height="64" viewBox="0 0 64 64" fill="none" xmlns="http://www.w3.org/2000/svg">
<path d="M63.5 32C63.5 49.397 49.397 63.5 32 63.5C14.603 63.5 0.5 49.397 0.5 32C0.5 14.603 14.603 0.5 32 0.5C49.397 0.5 63.5 14.603 63.5 32Z" fill="white" stroke="#E0E0E0"/>
<path fill-rule="evenodd" clip-rule="evenodd" d="M12 12H52V52H12V12Z" fill="white"/>
<path fill-rule="evenodd" clip-rule="evenodd" d="M13.6895 38.0221H16.4006C17.5082 38.0221 18.31 38.5948 18.31 39.7405C18.31 40.6187 17.9282 41.0767 17.2789 41.3444V41.3826C18.0427 41.5353 18.4627 42.0319 18.4627 42.8721C18.4627 44.5139 17.2027 44.8576 16.1716 44.8576H13.6895V38.0221V38.0221ZM15.2552 43.5594H15.7134C16.2861 43.5594 16.8972 43.4446 16.8972 42.7573C16.8972 42.0319 16.2863 41.9553 15.7515 41.9553H15.255V43.5594H15.2552V43.5594ZM15.2552 40.7333H15.7134C16.2097 40.7333 16.7443 40.5809 16.7443 40.0078C16.7443 39.3589 16.2479 39.3205 15.7134 39.3205H15.2552V40.7333V40.7333ZM22.0523 41.1535C21.8614 41.1153 21.7087 41.1153 21.5176 41.1153C20.8303 41.1153 20.4485 41.688 20.4485 42.681V44.8574H18.9211V39.7407H20.2959V40.6953C20.5632 40.046 20.945 39.6262 21.5944 39.6262C21.7853 39.6262 21.9762 39.6644 22.1289 39.7023L22.0523 41.1535ZM25.031 44.8576V44.1703C24.7635 44.7049 24.2674 44.9723 23.6946 44.9723C22.8164 44.9723 22.0525 44.4758 22.0525 43.3683C22.0525 41.803 23.5037 41.6117 24.3055 41.6117C24.5728 41.6117 24.8401 41.6503 25.031 41.6882C24.9928 41.001 24.5728 40.81 24.0001 40.81C23.5419 40.81 23.0453 40.9244 22.6253 41.1919L22.5871 40.008C23.1217 39.7409 23.6944 39.6262 24.3437 39.6262C25.451 39.6262 26.444 40.1989 26.444 41.7264V43.6358C26.444 44.056 26.444 44.4378 26.5204 44.8578H25.031V44.8576V44.8576ZM24.0762 43.7503C24.4963 43.7503 24.8401 43.5594 25.031 43.2157V42.5664C24.8401 42.5283 24.611 42.5283 24.3819 42.5283C23.8853 42.5283 23.4653 42.7192 23.4653 43.2155C23.4655 43.5594 23.7328 43.7503 24.0762 43.7503V43.7503ZM31.7902 44.8576H30.4154V44.0939C30.1098 44.6285 29.537 44.9721 28.8879 44.9721C27.5895 44.9721 26.9022 43.7121 26.9022 42.2226C26.9022 40.9626 27.5513 39.6258 28.7736 39.6258C29.3845 39.6258 29.8809 39.8167 30.2629 40.3894H30.3011V38.0221H31.7904V44.8576H31.7902V44.8576ZM29.3845 43.5976C29.8809 43.5976 30.3009 43.063 30.3009 42.2994C30.3009 41.5353 29.9191 41.0007 29.3845 41.0007C28.7736 41.0007 28.4679 41.5735 28.4679 42.2608C28.4679 43.0628 28.8115 43.5976 29.3845 43.5976ZM33.8523 42.8339C33.9671 43.521 34.4255 43.7885 35.1509 43.7885C35.5708 43.7885 36.0292 43.6737 36.4871 43.4067V44.6287C35.9906 44.8578 35.456 44.9723 34.8833 44.9723C33.4323 44.9723 32.3246 43.9794 32.3246 42.2994C32.3246 40.6189 33.3175 39.626 34.6923 39.626C36.2962 39.626 36.9074 40.9626 36.9074 42.4903V42.8339H33.8523V42.8339ZM35.5326 41.8028C35.5326 41.2296 35.3035 40.7333 34.6923 40.7333C34.1578 40.7333 33.8907 41.2298 33.8521 41.8028H35.5326V41.8028ZM37.4039 43.4446C37.7476 43.5974 38.2822 43.7883 38.8169 43.7883C39.1222 43.7883 39.4276 43.7121 39.4276 43.3681C39.4276 42.5283 37.2892 43.139 37.2892 41.3062C37.2892 40.1223 38.2822 39.6258 39.122 39.6258C39.6565 39.6258 40.1915 39.7019 40.6877 39.9314L40.5733 41.1535C40.2297 40.9242 39.7713 40.8098 39.3895 40.8098C39.0458 40.8098 38.7022 40.886 38.7022 41.1535C38.7022 41.9551 40.9172 41.3444 40.9172 43.2537C40.9172 44.6285 39.886 44.9721 38.8931 44.9721C38.2058 44.9721 37.7476 44.8956 37.2892 44.7047L37.4039 43.4446V43.4446ZM44.8882 41.1917C44.6211 41.0007 44.3537 40.9242 43.9718 40.9242C43.3225 40.9242 42.8263 41.4591 42.8263 42.3375C42.8263 43.1392 43.3991 43.6737 44.0864 43.6737C44.392 43.6737 44.7357 43.5976 45.0028 43.4446L45.0409 44.7428C44.6591 44.8956 44.2011 44.9721 43.8189 44.9721C42.3679 44.9721 41.2606 43.9792 41.2606 42.2992C41.2606 40.6187 42.3679 39.6258 43.8189 39.6258C44.2773 39.6258 44.6591 39.7019 45.0028 39.9314L44.8882 41.1917ZM45.1939 42.2994C45.1939 40.6189 46.3016 39.626 47.7526 39.626C49.2035 39.626 50.3112 40.6189 50.3112 42.2994C50.3112 43.9794 49.2035 44.9723 47.7526 44.9723C46.3016 44.9723 45.1939 43.9792 45.1939 42.2994ZM48.7455 42.2994C48.7455 41.5353 48.4399 40.886 47.7526 40.886C47.0653 40.886 46.7596 41.5353 46.7596 42.2994C46.7596 43.063 47.0653 43.7123 47.7526 43.7123C48.4399 43.7123 48.7455 43.0628 48.7455 42.2994Z" fill="#59595B"/>
<path fill-rule="evenodd" clip-rule="evenodd" d="M23.3125 17.5538H40.3824V34.5853H23.3125V17.5538Z" fill="white"/>
<path fill-rule="evenodd" clip-rule="evenodd" d="M33.2034 27.7115H31.7902V34.5853H30.9118V29.9648H30.3008V34.5853H23.3125V17.5538H40.3824V34.5853H33.2032V27.7115H33.2034V27.7115ZM30.6065 22.0598C29.7281 22.0598 28.9262 22.1362 28.1242 22.2507C29.1935 20.9523 30.7972 20.0741 32.6302 20.0741C34.0816 20.0741 35.418 20.647 36.4489 21.5634C35.3798 20.265 33.7759 19.4631 32.0191 19.4631C29.8424 19.4631 27.9331 20.685 26.9401 22.518C25.8708 22.7855 24.9544 23.1673 24.1905 23.6255C24.9544 23.2819 25.8326 23.0146 26.7492 22.8237C26.3674 23.6255 26.1764 24.5421 26.1764 25.4967C26.1764 27.3297 26.9401 28.9718 28.2004 30.0793C27.3221 29.0102 26.7492 27.6354 26.7492 26.146C26.7492 24.8476 27.1692 23.6255 27.8183 22.6709C28.4391 22.5936 29.0641 22.5553 29.6897 22.5564C34.3866 22.5564 38.1674 24.5421 38.1674 27.0244C38.1674 28.1702 37.4037 29.2011 36.1051 29.965C37.9383 29.1629 39.0838 27.9027 39.0838 26.5663C39.084 24.0837 35.3037 22.0598 30.6065 22.0598V22.0598Z" fill="#CC203C"/>
</svg>
