<svg width="64" height="64" viewBox="0 0 64 64" fill="none" xmlns="http://www.w3.org/2000/svg">
<path d="M63.5 32C63.5 49.397 49.397 63.5 32 63.5C14.603 63.5 0.5 49.397 0.5 32C0.5 14.603 14.603 0.5 32 0.5C49.397 0.5 63.5 14.603 63.5 32Z" fill="#FAFAFA" stroke="#E0E0E0"/>
<path fill-rule="evenodd" clip-rule="evenodd" d="M14.8806 29.2189H16.7809C17.4847 29.2189 18.3112 29.2914 18.3112 30.1979C18.3112 31.1159 17.6697 31.5876 16.7932 31.5876H14.3625L14.8806 29.2189ZM12.1777 33.0618H16.8796C18.6443 33.0618 20.2492 32.107 20.2492 30.2341C20.2492 29.4001 19.7798 28.6995 18.941 28.4821V28.4579C19.9772 28.3365 20.5946 27.4306 20.5946 26.4516C20.5946 24.8082 19.4961 24.4338 17.7314 24.4338H14.0287L12.1777 33.0618V33.0618ZM15.5837 25.908H17.6327C18.2618 25.908 18.6566 26.1375 18.6566 26.7898C18.6566 27.5393 18.0521 27.9258 17.349 27.9258H15.1519L15.5837 25.908V25.908Z" fill="#009EE0"/>
<path d="M20.8984 30.1977C20.8984 32.2759 22.1327 33.267 24.5634 33.267C26.2418 33.267 28.1551 32.4819 28.1551 30.4151C28.1551 28.8684 27.1799 28.349 25.7977 27.9987C25.1932 27.8532 23.6999 27.6357 23.6999 26.7781C23.6999 25.9803 24.5018 25.7025 25.2426 25.7025C26.1431 25.7025 26.8592 26.0407 26.8222 27.0076H28.6609C28.6609 25.014 27.1552 24.2283 25.3536 24.2283C23.6506 24.2283 21.8613 24.9899 21.8613 26.911C21.8613 28.3973 22.9715 28.8926 24.0824 29.2308C25.1809 29.5575 26.3164 29.7266 26.3164 30.5721C26.3164 31.4304 25.4153 31.7927 24.6375 31.7927C23.5272 31.7927 22.6754 31.4183 22.7371 30.1977H20.8984Z" fill="#002851"/>
<path fill-rule="evenodd" clip-rule="evenodd" d="M31.5534 29.2189H33.4538C34.1575 29.2189 34.984 29.2914 34.984 30.1979C34.984 31.1159 34.3426 31.5876 33.4661 31.5876H31.0353L31.5534 29.2189ZM28.8506 33.0618H33.5524C35.3171 33.0618 36.922 32.107 36.922 30.2341C36.922 29.4001 36.4526 28.6995 35.6138 28.4821V28.4579C36.65 28.3365 37.2674 27.4306 37.2674 26.4516C37.2674 24.8082 36.1689 24.4338 34.4043 24.4338H30.7016L28.8506 33.0618V33.0618ZM32.2565 25.908H34.3056C34.9347 25.908 35.3294 26.1375 35.3294 26.7898C35.3294 27.5393 34.725 27.9258 34.0219 27.9258H31.8248L32.2565 25.908V25.908Z" fill="#002851"/>
<path d="M30.3199 35.2173C31.0165 34.656 31.2477 34.5212 32.106 34.3407C34.5244 33.8308 36.1066 35.4341 38.5257 34.9255C39.1334 34.7978 39.5931 34.5791 39.9794 34.3152L38.0161 36.0203C37.6577 36.3159 37.1273 36.5409 36.5196 36.6687C34.1005 37.1773 32.5189 35.5753 30.0991 36.0838C29.4863 36.2129 29.0246 36.4341 28.6357 36.7011L30.3199 35.2173Z" fill="#009EE0"/>
<path d="M28.4127 37.3682C29.1093 36.8069 29.3404 36.6721 30.1987 36.4916C32.6172 35.9817 34.1994 37.585 36.6185 37.0764C37.2262 36.9486 37.6859 36.73 38.0722 36.4661L36.1089 38.1711C35.7505 38.4667 35.22 38.6918 34.6123 38.8196C32.1932 39.3281 30.6117 37.7261 28.1919 38.2347C27.579 38.3638 27.1174 38.585 26.7285 38.852L28.4127 37.3682Z" fill="#009EE0"/>
<path d="M42.1314 32.442C42.8281 31.8807 43.0592 31.7459 43.9175 31.5653C46.336 31.0555 47.9182 32.6588 50.3373 32.1502C50.945 32.0224 51.4046 31.8037 51.7909 31.5399L49.8276 33.2449C49.4692 33.5405 48.9388 33.7656 48.3311 33.8934C45.912 34.4019 44.3304 32.7999 41.9107 33.3085C41.2978 33.4376 40.8362 33.6588 40.4473 33.9258L42.1314 32.442Z" fill="#002851"/>
<path d="M40.2242 34.5718C40.9208 34.0099 41.152 33.8757 42.0103 33.6952C44.4287 33.1853 46.0109 34.7886 48.43 34.28C49.0377 34.1523 49.4974 33.9336 49.8837 33.6697L47.9204 35.3747C47.562 35.6704 47.0316 35.8954 46.4239 36.0232C44.0048 36.5318 42.4232 34.9297 40.0034 35.4383C39.3906 35.5674 38.9289 35.7886 38.54 36.0556L40.2242 34.5718Z" fill="#002851"/>
</svg>
