<svg width="64" height="64" viewBox="0 0 64 64" fill="none" xmlns="http://www.w3.org/2000/svg">
<path d="M63.5 32C63.5 49.397 49.397 63.5 32 63.5C14.603 63.5 0.5 49.397 0.5 32C0.5 14.603 14.603 0.5 32 0.5C49.397 0.5 63.5 14.603 63.5 32Z" fill="white" stroke="#E0E0E0"/>
<path fill-rule="evenodd" clip-rule="evenodd" d="M12 12H52V52H12V12Z" fill="white"/>
<path fill-rule="evenodd" clip-rule="evenodd" d="M25.378 30.7003L24.4944 32.9021H25.7169L25.3819 30.691L25.378 30.7003ZM20.6973 35.7542L24.322 28.2925H27.0616L28.5901 35.7542H26.184L26.0072 34.76H23.673L23.136 35.7542H20.6973ZM29.7288 35.7542L30.7788 28.2925H33.203L32.1532 35.7542H29.7288V35.7542ZM45.8509 30.691L44.9638 32.9021H46.1863L45.8509 30.691V30.691ZM41.1665 35.7542L44.7911 28.2925H47.5306L49.0589 35.7542H46.653L46.4762 34.76H44.142L43.605 35.7542H41.1665ZM35.8076 32.2652H38.8448L40.9262 35.7125H37.8883L35.8076 32.2652Z" fill="#0D6FAB"/>
<path fill-rule="evenodd" clip-rule="evenodd" d="M36.1229 31.7356H39.2624L41.989 28.3033H38.8495L36.1229 31.7356V31.7356ZM32.9834 35.7334H36.1229L38.8495 32.2587H35.71L32.9834 35.7334V35.7334Z" fill="#DB8135"/>
<path fill-rule="evenodd" clip-rule="evenodd" d="M34.1157 28.2614H37.0461L39.0536 31.7356H36.1233L34.1157 28.2614ZM20.7693 28.5598L20.536 30.7543C19.6425 29.5218 17.5719 30.3722 17.4092 31.9076C17.2025 33.8566 19.1955 34.3113 20.2802 33.1635L20.0463 35.3632C19.7226 35.5226 19.4061 35.6457 19.0938 35.7293C18.79 35.8115 18.4773 35.8567 18.1627 35.8638C17.7742 35.8718 17.4225 35.831 17.1052 35.7417C16.7959 35.6577 16.505 35.5168 16.2473 35.3263C15.7576 34.9683 15.4035 34.5132 15.1852 33.9592C14.9673 33.4034 14.8953 32.7765 14.9698 32.0757C15.0296 31.5127 15.1717 30.9991 15.3977 30.5335C15.6218 30.0678 15.9323 29.6451 16.3276 29.2616C16.7013 28.8957 17.1083 28.62 17.5488 28.4324C17.9873 28.2466 18.4663 28.1474 18.9838 28.1366C19.289 28.1293 19.5938 28.1614 19.8907 28.2321C20.1864 28.3029 20.4782 28.4133 20.7693 28.5598V28.5598Z" fill="#0D6FAB"/>
</svg>
