<svg width="64" height="64" viewBox="0 0 64 64" fill="none" xmlns="http://www.w3.org/2000/svg">
<path d="M63.5 32C63.5 49.397 49.397 63.5 32 63.5C14.603 63.5 0.5 49.397 0.5 32C0.5 14.603 14.603 0.5 32 0.5C49.397 0.5 63.5 14.603 63.5 32Z" fill="#FAFAFA" stroke="#E0E0E0"/>
<path d="M24.973 27.3223C24.6126 27.3223 24.2923 27.042 24.2923 26.6817C24.2923 26.6817 24.2923 26.6817 24.2923 26.6416C24.2923 26.2813 24.5726 25.9609 24.973 25.9609C25.3734 25.9609 25.6537 26.2813 25.6537 26.6416C25.6537 27.042 25.3734 27.3223 24.973 27.3223ZM24.973 25.8008C24.4524 25.8008 24.0921 26.2012 24.0921 26.6416C24.0921 27.0821 24.4524 27.4825 24.973 27.4825C25.4935 27.4825 25.8539 27.0821 25.8539 26.6416C25.8539 26.2012 25.4935 25.8008 24.973 25.8008V25.8008ZM22.5706 27.0821L22.6907 27.2022C22.5305 27.3623 22.3303 27.4825 22.01 27.4825C21.5295 27.4825 21.1291 27.1221 21.1291 26.6416C21.1291 26.1611 21.4895 25.8008 22.01 25.8008C22.3303 25.8008 22.4905 25.9209 22.6907 26.041L22.5706 26.1611C22.4104 26.0811 22.2502 26.001 22.01 26.001C21.6096 26.001 21.3293 26.2813 21.3293 26.6817C21.3293 27.0821 21.6096 27.3623 22.01 27.3623C22.2502 27.3223 22.4104 27.2422 22.5706 27.0821ZM19.3674 25.8408H19.5676V27.4825H19.4074L18.2863 26.1611V27.4825H18.0861V25.8408H18.2863L19.3674 27.1621V25.8408ZM15.2833 26.8819L15.6837 26.041L16.0841 26.8819H15.2833V26.8819ZM15.6036 25.8408L14.8028 27.4825H15.003L15.2032 27.042H16.1241L16.3243 27.4825H16.5245L15.7237 25.8408C15.7638 25.8408 15.6036 25.8408 15.6036 25.8408ZM12.7608 27.3223H12.2002V26.7217H12.7608C13.041 26.7217 13.2012 26.8418 13.2012 27.002C13.2012 27.2022 13.041 27.3223 12.7608 27.3223V27.3223ZM12.2002 26.001H12.7207C12.961 26.001 13.1211 26.1211 13.1211 26.2813C13.1211 26.4815 12.961 26.5615 12.7207 26.5615H12.2002V26.001ZM13.001 26.6416C13.1612 26.5615 13.2813 26.4815 13.2813 26.2412C13.2813 26.001 13.041 25.8408 12.7207 25.8408H12V27.4825H12.7608C13.1211 27.4825 13.4014 27.3223 13.4014 27.042C13.4014 26.8018 13.2412 26.6817 13.001 26.6416V26.6416Z" fill="#9C9B9B"/>
<path d="M30.5385 25V29.1241H33.9019V31.6466H30.5385V35.4905C30.5385 36.3313 30.9389 36.6917 31.7397 36.7718C32.6607 36.8919 33.3814 36.4915 33.9019 36.2513L33.982 36.2112L35.023 38.4535L34.983 38.4935C33.6216 39.1742 32.7808 39.3744 31.7397 39.3744C29.2172 39.3744 27.8559 37.973 27.8559 35.4505V26.4014L30.5385 25ZM45.7538 29.4044H45.7137V39.0541H48.3964V31.5265C48.7167 31.4865 49.037 31.4464 49.6777 31.4464C50.3183 31.4464 50.7187 31.5265 51.1592 31.6466H51.1992L52 29.1642H51.9199C51.1191 28.964 50.4785 28.8839 49.4374 28.8839C48.4364 28.8839 46.8749 29.004 45.7538 29.4044V29.4044ZM35.023 34.2092C35.023 30.8859 36.5445 28.8839 39.6276 28.8839C42.6707 28.8839 44.3123 30.5656 44.3123 33.8889L39.7878 36.0911L38.6266 33.8889L41.5095 32.4074C41.5496 31.7668 40.7087 31.3664 39.6677 31.4064C38.4665 31.4865 37.7858 32.047 37.7858 34.0891C37.7858 36.0911 38.7467 36.7718 40.1882 36.7718C41.4695 36.7718 42.7107 36.5716 43.3514 36.3714H43.3914L44.1922 38.7738H44.1522C43.0711 39.1341 41.6296 39.2943 40.1882 39.2943C36.7848 39.2943 35.023 37.5726 35.023 34.2092V34.2092ZM17.2052 29.4044H17.1652V39.0541H19.8478V31.5265C20.3283 31.4464 20.6887 31.4464 21.4094 31.4464C22.7307 31.4464 23.3714 32.007 23.3714 33.1281V39.0941H26.0541V33.2883C26.0541 30.5255 24.3724 28.8839 21.6096 28.8839C20.008 28.8839 18.2062 29.0841 17.2052 29.4044V29.4044ZM12 39.0541H14.6827V29.1241H12V39.0541Z" fill="url(#paint0_linear_857_8842)"/>
<defs>
<linearGradient id="paint0_linear_857_8842" x1="10.8066" y1="32.1784" x2="52.025" y2="32.1784" gradientUnits="userSpaceOnUse">
<stop stop-color="#FF8700"/>
<stop offset="1" stop-color="#FF500F"/>
</linearGradient>
</defs>
</svg>
