<svg width="64" height="64" viewBox="0 0 64 64" fill="none" xmlns="http://www.w3.org/2000/svg">
<path d="M63.5 32C63.5 49.397 49.397 63.5 32 63.5C14.603 63.5 0.5 49.397 0.5 32C0.5 14.603 14.603 0.5 32 0.5C49.397 0.5 63.5 14.603 63.5 32Z" fill="#FAFAFA" stroke="#E0E0E0"/>
<g clip-path="url(#clip0_857_8836)">
<path d="M25.1324 20.056C23.1633 20.056 21.4914 20.8274 20.2271 22.1427H20.2238C20.1336 22.139 20.0448 22.1394 19.9538 22.1394C17.3811 22.1394 14.9663 23.6119 13.7888 25.8992C13.2741 26.8985 13.0831 27.9729 13.0238 29.0664C12.9703 30.048 13.0238 31.0435 13.0238 32.0157V41.4362H18.3066C18.3066 41.4362 18.3103 36.7962 18.3066 32.8067C18.3043 30.1214 18.2869 27.7282 18.3066 27.237C18.3999 24.9142 19.0353 23.3949 20.2206 22.1524C24.1514 22.1554 26.6959 24.8342 26.8381 29.099C26.8708 30.078 26.8804 35.3164 26.8804 35.3164V41.4364H32.1601V33.1614C32.1601 30.6602 32.1813 28.4937 32.0071 27.0027C31.5204 22.836 28.9721 20.056 25.1324 20.056V20.056ZM39.1163 20.5574L33.8396 20.5639V28.8385C33.8396 31.34 33.8184 33.5064 33.9928 34.9974C34.4796 39.1642 37.0278 41.944 40.8674 41.944C42.8366 41.944 44.5084 41.1727 45.7728 39.8574C45.7733 39.8569 45.7754 39.858 45.7761 39.8574C45.8664 39.8612 45.9583 39.8607 46.0494 39.8607C48.6219 39.8607 51.0336 38.3882 52.2113 36.101C52.7259 35.1015 52.9168 34.0274 52.9763 32.9337C53.0296 31.9522 52.9763 30.9567 52.9763 29.9845V20.5639H47.6933C47.6933 20.5639 47.6896 25.2039 47.6933 29.1934C47.6958 31.8789 47.7131 34.2717 47.6933 34.763C47.5999 37.0855 46.9646 38.6052 45.7794 39.8477C41.8484 39.8447 39.3039 37.1659 39.1618 32.901C39.1291 31.922 39.1163 29.4949 39.1163 26.6804V20.5574Z" fill="#9C44DC"/>
</g>
<defs>
<clipPath id="clip0_857_8836">
<rect width="40" height="40" fill="white" transform="translate(13 11)"/>
</clipPath>
</defs>
</svg>
