<svg width="64" height="64" viewBox="0 0 64 64" fill="none" xmlns="http://www.w3.org/2000/svg">
<path d="M63.5 32C63.5 49.397 49.397 63.5 32 63.5C14.603 63.5 0.5 49.397 0.5 32C0.5 14.603 14.603 0.5 32 0.5C49.397 0.5 63.5 14.603 63.5 32Z" fill="#28539C" stroke="#E0E0E0"/>
<path fill-rule="evenodd" clip-rule="evenodd" d="M12 12H52V52H12V12Z" fill="#28539C"/>
<path fill-rule="evenodd" clip-rule="evenodd" d="M46.0556 43.6466C46.0556 46.4603 43.775 48.7401 40.9621 48.7401L23.0368 48.7478C20.2226 48.7478 17.9443 46.519 17.9443 43.7062V20.3459C17.9443 17.532 20.2704 15.2586 23.0845 15.2586L40.9624 15.2522C43.7752 15.2522 46.0558 17.532 46.0558 20.3457V43.6466H46.0556V43.6466Z" fill="#EEBE5E"/>
<path fill-rule="evenodd" clip-rule="evenodd" d="M44.5183 43.3357C44.5183 45.2956 43.0095 47.2031 41.0476 47.2031H23.0367C21.0756 47.2031 19.4277 45.7204 19.4277 43.7596V20.3459C19.4277 18.3842 21.0173 16.7957 22.9781 16.7957H40.9895C42.9507 16.7957 44.5399 18.3853 44.5399 20.3459L44.5183 43.3357V43.3357Z" fill="#28539C"/>
<path fill-rule="evenodd" clip-rule="evenodd" d="M33.6858 25.1946L30.2905 25.2019C30.4687 26.552 30.6517 27.3045 30.7493 28.6627C30.8634 30.2714 30.8603 31.1886 30.7493 32.7962C30.6517 34.1949 30.4654 34.9704 30.2832 36.3614C31.0257 36.2525 31.4397 36.1543 32.1869 36.0837C32.8529 36.0204 33.2322 36.0319 33.9006 35.9999C33.7591 34.6498 33.6348 33.8919 33.5387 32.5381C33.4252 30.9205 33.358 30.003 33.4146 28.3834C33.4588 27.136 33.5796 26.4377 33.6858 25.1946V25.1946ZM34.259 30.5592C34.259 27.478 36.2325 24.9784 38.6666 24.9784C41.1016 24.9784 43.0751 27.478 43.0751 30.5592C43.0751 33.6408 41.1016 36.1379 38.6666 36.1379C36.2322 36.1379 34.259 33.6408 34.259 30.5592Z" fill="#EEBE5E"/>
<path fill-rule="evenodd" clip-rule="evenodd" d="M36.6592 30.5592C36.6592 28.864 37.5453 27.4899 38.6395 27.4899C39.7337 27.4899 40.6202 28.864 40.6202 30.5592C40.6202 32.255 39.7339 33.6275 38.6395 33.6275C37.5451 33.6275 36.6592 32.255 36.6592 30.5592V30.5592Z" fill="#28539C"/>
<path fill-rule="evenodd" clip-rule="evenodd" d="M24.0569 36.279C23.9681 36.1445 23.8799 33.8816 23.8799 33.6803V32.1855C23.8799 32.0287 23.9029 31.8504 24.1044 31.8504C24.5282 31.8504 27.7793 36.7555 27.8972 36.6934C28.1327 36.5679 28.3172 36.3541 28.8128 35.8779C29.2965 35.4467 29.9954 34.7897 30.0527 34.6851C30.0657 34.6604 29.0713 33.9442 27.959 32.6728C27.4253 32.0621 27.5363 32.1953 26.9432 31.5377C28.1269 30.7568 29.7501 30.3781 29.7501 28.3913C29.7501 26.6505 28.0092 25.3784 26.2242 25.3784C25.6436 25.3784 24.95 25.3697 24.1129 25.3138H21.0996C21.3231 29.4986 21.4903 30.7825 21.0439 36.3062C21.0439 36.3062 23.7902 36.3678 24.0569 36.279V36.279ZM23.8062 27.2394C24.0745 27.2394 24.9056 27.1273 24.95 27.1273C25.6865 27.1273 26.6703 27.4533 26.6703 28.3243C26.6703 29.3502 24.9218 30.2868 23.9853 30.2868C23.8261 30.2868 23.8361 29.5071 23.8361 28.9489C23.8361 27.8109 23.8062 27.2394 23.8062 27.2394ZM41.4586 40.9V39.2075C40.1203 38.9157 39.7564 37.2657 38.3654 37.2657C37.0213 37.2657 36.2711 39.3162 35.1862 39.349C34.1015 39.3162 33.3578 37.2657 32.0141 37.2657C30.6704 37.2657 29.9105 39.3162 28.8254 39.349C27.7409 39.3162 26.9993 37.2657 25.656 37.2657C24.2654 37.2657 23.9052 38.9157 22.5673 39.2075V40.9C23.9052 40.6082 24.2654 38.9562 25.656 38.9562C26.9993 38.9562 27.7411 41.0062 28.8254 41.0394C29.9105 41.0062 30.6704 38.9562 32.0141 38.9562C33.358 38.9562 34.1017 41.0062 35.1862 41.0394C36.2713 41.0062 37.0215 38.9562 38.3654 38.9562C39.7564 38.9562 40.1203 40.6065 41.4586 40.8979V40.9V40.9Z" fill="#EEBE5E"/>
<path fill-rule="evenodd" clip-rule="evenodd" d="M41.4592 44.3347V42.6431C40.1209 42.3513 39.757 40.7009 38.366 40.7009C37.0219 40.7009 36.2717 42.751 35.1868 42.7838C34.1021 42.751 33.3584 40.7009 32.0147 40.7009C30.671 40.7009 29.9111 42.751 28.826 42.7838C27.7415 42.751 26.9999 40.7009 25.6566 40.7009C24.266 40.7009 23.9058 42.3513 22.5679 42.6431V44.3347C23.9058 44.0421 24.266 42.3905 25.6566 42.3905C26.9999 42.3905 27.7417 44.441 28.826 44.4738C29.9111 44.441 30.671 42.3905 32.0147 42.3905C33.3586 42.3905 34.1023 44.441 35.1868 44.4738C36.2719 44.441 37.0221 42.3905 38.366 42.3905C39.757 42.3905 40.1209 44.0417 41.4592 44.3331V44.3347ZM23.7383 23.9542C24.6784 23.9542 25.2553 23.4632 25.2553 22.7745C25.2553 22.1635 24.702 21.8216 24.2065 21.7981V21.7869C24.569 21.79 25.0044 21.4507 25.0044 20.8126C25.0044 20.2702 24.5302 19.9622 23.8581 19.9622H22.416V23.954H23.7383V23.9542Z" fill="#EEBE5E"/>
<path fill-rule="evenodd" clip-rule="evenodd" d="M23.2197 22.1183H23.6244C24.0643 22.1183 24.4117 22.3181 24.4117 22.7846C24.4117 23.23 24.0751 23.4632 23.6298 23.4632H23.2197V22.1183ZM23.2278 20.5121H23.6026C23.9151 20.5121 24.1517 20.6499 24.1517 20.9682C24.1517 21.3021 23.8693 21.5696 23.4548 21.5696H23.228V20.5121H23.2278V20.5121Z" fill="#28539C"/>
<path fill-rule="evenodd" clip-rule="evenodd" d="M27.2134 19.9624L25.5898 23.9542H26.3487L26.7592 22.8645H28.0665L28.4375 23.9542H29.3809L27.8824 19.9624H27.2134Z" fill="#EEBE5E"/>
<path fill-rule="evenodd" clip-rule="evenodd" d="M26.9072 22.3748C27.0946 21.8508 27.283 21.3656 27.4486 20.7491H27.4592C27.6484 21.3656 27.7767 21.8508 27.9477 22.3748H26.9072V22.3748Z" fill="#28539C"/>
<path fill-rule="evenodd" clip-rule="evenodd" d="M33.2966 19.9624H32.6523V22.8083H32.6409C31.8888 21.7815 31.3007 20.8749 30.5379 19.9624H29.9502V23.9542H30.5945V21.0913H30.6055C31.3586 22.1241 31.9507 23.0355 32.7145 23.9542H33.2966V19.9624ZM37.1672 20.2017C36.8929 20.0421 36.5055 19.8935 36.0892 19.8935C34.6851 19.8935 33.8198 20.8464 33.8198 21.9353C33.8198 23.1102 34.6928 24.0219 36.0778 24.0219C36.4652 24.0219 36.8929 23.8916 37.1388 23.7488L36.9155 23.2094C36.7051 23.3242 36.4198 23.3885 36.1122 23.3885C35.3299 23.3885 34.6749 22.8928 34.6749 21.9465C34.6749 21.0398 35.2672 20.5069 36.089 20.5069C36.3961 20.5069 36.7217 20.6262 36.9153 20.7296L37.1672 20.2017V20.2017ZM39.429 24.0219C40.655 24.0219 41.4186 23.0926 41.4186 21.9006C41.4186 20.7835 40.5757 19.8937 39.429 19.8937C38.2828 19.8937 37.4389 20.7835 37.4389 21.9006C37.4389 23.0928 38.2025 24.0219 39.429 24.0219Z" fill="#EEBE5E"/>
<path fill-rule="evenodd" clip-rule="evenodd" d="M39.4289 23.453C38.5907 23.453 38.2939 22.6657 38.2939 21.9006C38.2939 21.1656 38.6303 20.4646 39.4289 20.4646C40.2274 20.4646 40.5633 21.1658 40.5633 21.9006C40.5633 22.6657 40.2666 23.453 39.4289 23.453Z" fill="#28539C"/>
</svg>
