<svg width="64" height="64" viewBox="0 0 64 64" fill="none" xmlns="http://www.w3.org/2000/svg">
<path d="M63.5 32C63.5 49.397 49.397 63.5 32 63.5C14.603 63.5 0.5 49.397 0.5 32C0.5 14.603 14.603 0.5 32 0.5C49.397 0.5 63.5 14.603 63.5 32Z" fill="#FAFAFA" stroke="#E0E0E0"/>
<g clip-path="url(#clip0_857_8843)">
<path fill-rule="evenodd" clip-rule="evenodd" d="M32.7557 13.0081C31.9917 22.1449 42.3268 25.3038 40.1306 31.11C62.1252 36.6365 49.8678 50.4055 32.7271 50.2055C15.5355 50.8068 0.597787 37.7818 24.3155 30.944C24.216 36.2348 32.7787 39.2598 31.3346 45.2773C33.942 42.9205 34.1203 39.7063 31.8701 35.6355C26.821 30.2608 23.8374 25.0107 28.2274 20.2082C26.5284 27.2568 37.804 32.0475 36.0479 38.4208C38.3799 35.352 39.9218 31.5324 35.0839 26.7434C29.5211 20.7358 29.7456 16.7288 32.7557 13.0081Z" fill="#CC2229"/>
</g>
<defs>
<clipPath id="clip0_857_8843">
<rect width="40" height="37.2396" fill="white" transform="translate(12 13)"/>
</clipPath>
</defs>
</svg>
