<svg width="980" height="982" viewBox="0 0 980 982" fill="none" xmlns="http://www.w3.org/2000/svg">
<rect width="980" height="982" fill="#C6C6C6"/>
<g clip-path="url(#clip0_803_5685)">
<rect width="1512" height="982" transform="translate(-532)" fill="#FAFAFA"/>
<rect width="980" height="982" fill="#00A35C"/>
<path d="M351.523 501.383C345.087 495.933 337.931 491.396 330.256 487.9C325.406 493.017 317.913 501.917 315.027 504.996C319.634 501.941 361.854 532.229 363.527 539.771C364.594 525.488 344.709 513.726 351.523 501.383Z" fill="#00B868"/>
<path d="M498.624 515.763C496.199 509.968 444.328 500.631 443.018 505.675C444.11 499.128 446.244 496.363 446.753 485.039C454.797 484.345 462.897 484.679 470.857 486.033C470.033 500.849 496.223 501.577 498.624 515.763Z" fill="#00B868"/>
<path d="M692.963 426.547C693.293 429.459 692.901 432.407 691.824 435.132C688.259 432.707 664.542 417.842 664.542 417.842L675.212 415.586C683.724 420.679 690.247 424.607 692.963 426.547Z" fill="#00B868"/>
<path d="M630.617 367.838L624.118 369.22L629.744 395.75C627.319 394.198 625.451 392.913 624.19 392.064C622.275 371.524 616.115 340.46 610.659 317.422C614.19 315.501 617.404 313.047 620.189 310.147C625.185 330.93 626.3 338.932 630.617 367.838Z" fill="#00B868"/>
<path d="M675.067 453.78C617.57 421.382 610.659 417.187 604.742 410.591C598.825 403.995 597.006 393.762 587.767 352.052C586.478 366.302 583.482 380.347 578.843 393.883C577.956 395.574 577.187 397.324 576.539 399.121C581.825 426.063 586.724 446.675 591.501 467.384C586.19 473.132 568.561 478.297 558.012 475.387C540.867 408.797 539.897 402.807 540.649 393.834C541.279 386.196 544.577 377.66 565.942 331.1C565.433 329.936 564.632 327.826 564.196 326.638C576.321 330.081 598.485 324.382 610.707 317.35C616.164 340.387 622.299 371.452 624.239 391.991L629.792 395.677L635.782 423.953L664.615 417.818C677.031 425.675 688.283 432.78 691.872 435.108C689.35 442.14 682.075 452.156 675.067 453.78Z" fill="#00B868"/>
<path d="M506.578 352.561C514.216 356.514 517.902 359.521 518.533 362.261C518.67 363.045 518.583 363.852 518.283 364.59C517.983 365.328 517.481 365.966 516.835 366.432C517.102 366.965 517.199 367.567 517.112 368.157C517.025 368.747 516.759 369.296 516.35 369.73C516.06 370.166 515.636 370.496 515.142 370.671C514.648 370.846 514.11 370.856 513.61 370.7C512.276 374.531 510.07 374.628 508.033 373.755C506.65 377.514 502.989 376.18 500.976 375.695C501.097 374.677 501.17 373.561 501.218 372.325C501.388 368.614 497.338 367.717 496.635 371.258C496.247 373.27 496.441 373.076 496.174 373.076C496.174 372.64 496.32 372.155 496.393 371.67C496.926 367.863 492.682 366.82 491.712 370.312L491.082 372.737C491.3 371.888 491.494 371.088 491.64 370.506C492.561 366.65 488.172 365.292 486.959 368.905C486.959 369.148 486.79 369.415 486.693 369.681C486.679 369.601 486.679 369.519 486.693 369.439C487.881 365.777 483.831 364.249 482.182 367.572C481.746 368.445 481.091 369.997 480.485 371.573C479.369 371.403 477.211 371.112 475.392 370.942C479.03 364.565 478.811 353.967 475.804 347.662C481.552 348.487 482.74 348.754 484.437 347.808C488.414 345.553 490.015 342.74 492.246 343.37L495.059 344.243C492.973 346.668 490.936 349.627 488.123 353.749C486.135 356.659 491.591 358.599 498.26 350.936C500.851 352.172 503.712 352.731 506.578 352.561Z" fill="#00B868"/>
<path d="M671.599 319.387C671.484 319.386 671.371 319.353 671.273 319.293C671.176 319.232 671.096 319.146 671.044 319.044C670.991 318.941 670.968 318.826 670.976 318.712C670.984 318.597 671.023 318.486 671.09 318.393L720.002 248.528L634.036 188.34L593.005 246.952C592.957 247.02 592.896 247.079 592.826 247.124C592.756 247.169 592.677 247.199 592.595 247.214C592.513 247.229 592.428 247.227 592.347 247.209C592.265 247.191 592.188 247.157 592.12 247.11C592.051 247.062 591.993 247.001 591.948 246.931C591.903 246.86 591.872 246.782 591.858 246.7C591.843 246.618 591.845 246.533 591.862 246.452C591.88 246.37 591.914 246.293 591.962 246.225L633.357 187.2C633.455 187.06 633.603 186.965 633.771 186.933C633.938 186.901 634.112 186.936 634.254 187.03L721.239 247.825C721.309 247.873 721.368 247.935 721.413 248.007C721.459 248.079 721.489 248.159 721.502 248.243C721.516 248.326 721.513 248.412 721.492 248.495C721.472 248.577 721.435 248.654 721.384 248.722C668.544 324.334 672.084 319.387 671.599 319.387Z" fill="#FAFAFA"/>
<path d="M650.55 348.099L632.266 374.24C632.266 374.612 632.363 375 632.557 375.404L651.302 348.729C651.343 348.68 651.374 348.623 651.394 348.561C651.413 348.5 651.42 348.435 651.415 348.371C651.409 348.307 651.391 348.245 651.361 348.187C651.331 348.13 651.291 348.08 651.241 348.038C651.192 347.997 651.135 347.965 651.073 347.946C651.012 347.927 650.947 347.92 650.883 347.925C650.819 347.931 650.756 347.949 650.699 347.979C650.642 348.009 650.591 348.049 650.55 348.099Z" fill="#FAFAFA"/>
<path d="M585.536 442.31C585.417 442.312 585.299 442.281 585.197 442.219C585.095 442.158 585.013 442.068 584.96 441.962C584.906 441.855 584.884 441.735 584.896 441.617C584.908 441.498 584.953 441.385 585.027 441.292L605.688 411.779C605.784 411.641 605.931 411.547 606.097 411.517C606.263 411.488 606.434 411.525 606.573 411.622C606.711 411.718 606.805 411.866 606.835 412.032C606.864 412.198 606.827 412.369 606.73 412.507C584.687 443.935 586.045 442.31 585.536 442.31Z" fill="#FAFAFA"/>
<path d="M505.802 556.164C505.486 556.164 510.652 559.85 391.002 475.945C390.864 475.848 390.77 475.701 390.74 475.535C390.711 475.369 390.748 475.198 390.845 475.06C390.941 474.921 391.089 474.827 391.255 474.798C391.42 474.768 391.591 474.806 391.73 474.902L505.705 554.66L560.825 475.775C560.873 475.707 560.933 475.648 561.004 475.603C561.074 475.558 561.153 475.528 561.235 475.513C561.317 475.498 561.401 475.5 561.483 475.518C561.564 475.536 561.642 475.57 561.71 475.617C561.779 475.665 561.837 475.726 561.882 475.796C561.927 475.867 561.958 475.945 561.972 476.027C561.987 476.109 561.985 476.194 561.967 476.275C561.949 476.357 561.915 476.434 561.868 476.503C502.358 561.693 506.311 556.164 505.802 556.164Z" fill="#FAFAFA"/>
<path d="M355.888 451.21C355.573 451.21 359.623 454.289 259.761 384.037C259.691 383.989 259.632 383.927 259.587 383.855C259.541 383.784 259.511 383.703 259.498 383.62C259.484 383.536 259.487 383.45 259.508 383.368C259.528 383.285 259.565 383.208 259.616 383.14C324.945 289.705 320.532 295.961 320.92 295.84C321.308 295.719 320.459 295.282 334.16 304.861C334.229 304.909 334.287 304.97 334.332 305.04C334.377 305.11 334.408 305.189 334.422 305.271C334.437 305.353 334.435 305.437 334.417 305.519C334.399 305.6 334.366 305.678 334.318 305.746C334.27 305.815 334.209 305.873 334.139 305.918C334.069 305.963 333.99 305.994 333.908 306.008C333.826 306.023 333.742 306.021 333.66 306.003C333.578 305.985 333.501 305.952 333.433 305.904L321.308 297.343L260.998 383.358L356.252 450.046C356.355 450.128 356.43 450.24 356.469 450.366C356.507 450.492 356.507 450.626 356.467 450.752C356.428 450.878 356.352 450.989 356.249 451.07C356.145 451.152 356.02 451.201 355.888 451.21Z" fill="#FAFAFA"/>
<path d="M479.369 408.166L471.585 402.71C471.447 402.613 471.352 402.466 471.323 402.3C471.293 402.134 471.331 401.963 471.427 401.825C471.524 401.686 471.671 401.592 471.837 401.562C472.003 401.533 472.174 401.571 472.312 401.667L479.587 406.759L501.412 375.477C501.509 375.339 501.656 375.244 501.822 375.215C501.988 375.185 502.159 375.223 502.298 375.319C502.436 375.416 502.53 375.563 502.56 375.729C502.589 375.895 502.552 376.066 502.455 376.205L480.194 407.996C480.101 408.121 479.966 408.208 479.814 408.239C479.662 408.27 479.503 408.244 479.369 408.166Z" fill="#FAFAFA"/>
<path d="M526.172 220.689L522.995 202.696C522.984 202.613 522.955 202.534 522.912 202.463C522.868 202.392 522.81 202.33 522.742 202.283C522.674 202.235 522.597 202.202 522.515 202.185C522.433 202.169 522.349 202.169 522.267 202.186L504.274 205.339C504.191 205.353 504.112 205.384 504.041 205.429C503.97 205.474 503.909 205.532 503.86 205.601C503.812 205.67 503.777 205.747 503.759 205.829C503.74 205.911 503.738 205.996 503.753 206.079C503.767 206.161 503.797 206.241 503.842 206.312C503.887 206.383 503.946 206.444 504.014 206.492C504.083 206.541 504.161 206.575 504.243 206.594C504.325 206.612 504.409 206.614 504.492 206.6L520.982 203.69L493.677 242.684L470.009 226.121C469.873 226.026 469.706 225.988 469.542 226.015C469.379 226.042 469.233 226.133 469.136 226.267L443.503 262.884C443.443 262.95 443.397 263.028 443.369 263.113C443.341 263.197 443.332 263.287 443.341 263.376C443.35 263.465 443.378 263.551 443.423 263.628C443.468 263.705 443.529 263.772 443.602 263.823C443.674 263.875 443.757 263.911 443.845 263.929C443.932 263.946 444.022 263.945 444.109 263.925C444.196 263.905 444.278 263.867 444.349 263.813C444.42 263.759 444.479 263.69 444.522 263.612L469.815 227.528L493.458 244.09C493.6 244.181 493.769 244.217 493.935 244.19C494.101 244.163 494.251 244.076 494.356 243.945L522.025 204.417L524.911 220.907C524.925 220.99 524.956 221.069 525 221.14C525.045 221.211 525.104 221.273 525.173 221.321C525.241 221.37 525.319 221.404 525.401 221.423C525.483 221.441 525.568 221.443 525.65 221.429C525.733 221.415 525.812 221.384 525.883 221.339C525.954 221.294 526.016 221.236 526.064 221.167C526.113 221.098 526.147 221.021 526.166 220.939C526.184 220.857 526.186 220.772 526.172 220.689Z" fill="#FAFAFA"/>
<path d="M355.112 244.964C354.931 243.917 354.544 242.916 353.975 242.019C353.406 241.122 352.665 240.345 351.796 239.735C350.926 239.124 349.945 238.692 348.908 238.461C347.87 238.231 346.798 238.207 345.752 238.392L341.75 239.095L339.325 225.661L350.747 223.575C350.914 223.546 351.063 223.452 351.161 223.313C351.259 223.174 351.298 223.003 351.269 222.835C351.24 222.668 351.145 222.519 351.007 222.422C350.868 222.324 350.696 222.285 350.529 222.314L339.156 224.327L338.307 219.477C338.3 219.389 338.274 219.305 338.232 219.228C338.19 219.151 338.133 219.084 338.063 219.03C337.994 218.977 337.914 218.938 337.829 218.918C337.744 218.897 337.655 218.894 337.569 218.909C337.483 218.924 337.401 218.957 337.328 219.006C337.255 219.055 337.193 219.118 337.146 219.192C337.099 219.266 337.068 219.349 337.055 219.435C337.042 219.522 337.047 219.61 337.07 219.695L337.919 224.545L333.942 225.248C332.899 225.43 331.902 225.815 331.008 226.382C330.114 226.949 329.34 227.686 328.731 228.552C328.122 229.418 327.689 230.395 327.458 231.428C327.226 232.461 327.201 233.529 327.382 234.572C327.564 235.615 327.949 236.612 328.516 237.506C329.083 238.4 329.82 239.174 330.686 239.783C331.552 240.392 332.529 240.825 333.562 241.056C334.595 241.288 335.664 241.314 336.706 241.132L340.732 240.55L343.157 253.985L331.808 255.997C331.721 256.005 331.636 256.03 331.559 256.072C331.482 256.114 331.415 256.172 331.361 256.241C331.308 256.31 331.27 256.39 331.249 256.475C331.228 256.56 331.225 256.649 331.24 256.735C331.255 256.821 331.288 256.903 331.337 256.976C331.386 257.049 331.449 257.111 331.523 257.158C331.597 257.205 331.68 257.236 331.767 257.249C331.853 257.262 331.942 257.257 332.026 257.234L343.375 255.246L344.248 260.096C344.289 260.247 344.386 260.378 344.519 260.463C344.652 260.547 344.811 260.579 344.966 260.551C345.121 260.524 345.26 260.44 345.356 260.315C345.452 260.19 345.498 260.034 345.485 259.877L344.636 255.027L348.613 254.324C350.708 253.929 352.563 252.725 353.779 250.974C354.995 249.223 355.474 247.064 355.112 244.964ZM336.488 240.114C335.166 240.338 333.808 240.167 332.582 239.622C331.357 239.078 330.319 238.184 329.6 237.053C328.88 235.921 328.51 234.603 328.536 233.262C328.562 231.922 328.983 230.619 329.747 229.516C331.735 226.703 334.354 226.679 338.137 226L340.562 239.41L336.488 240.114ZM348.322 253.184L344.345 253.888L341.92 240.453C345.655 239.823 348.201 238.925 351.014 240.89C352.069 241.677 352.874 242.752 353.333 243.986C353.791 245.22 353.884 246.56 353.6 247.846C353.316 249.131 352.667 250.307 351.73 251.233C350.794 252.158 349.611 252.794 348.322 253.063V253.184Z" fill="#FAFAFA"/>
<path d="M516.496 434.817L506.942 436.514L505.244 426.96C505.233 426.902 505.211 426.848 505.178 426.799C505.146 426.75 505.105 426.709 505.056 426.676C505.008 426.643 504.953 426.621 504.896 426.609C504.839 426.597 504.78 426.597 504.723 426.608C504.665 426.619 504.611 426.642 504.562 426.674C504.513 426.706 504.472 426.748 504.439 426.796C504.406 426.844 504.383 426.899 504.372 426.956C504.36 427.013 504.36 427.072 504.371 427.129L506.044 436.66L496.49 438.357C496.386 438.392 496.299 438.463 496.243 438.556C496.186 438.649 496.165 438.76 496.182 438.867C496.2 438.975 496.255 439.073 496.338 439.144C496.421 439.215 496.526 439.254 496.635 439.254L506.19 437.557L507.887 447.111C507.922 447.215 507.993 447.302 508.086 447.359C508.18 447.415 508.29 447.436 508.398 447.419C508.505 447.401 508.603 447.346 508.674 447.263C508.745 447.18 508.784 447.075 508.785 446.966L507.087 437.411L516.642 435.714C516.745 435.679 516.832 435.609 516.889 435.515C516.945 435.422 516.966 435.311 516.949 435.204C516.931 435.096 516.876 434.998 516.793 434.927C516.71 434.856 516.605 434.817 516.496 434.817Z" fill="#FAFAFA"/>
<path d="M649.168 471.289L635.782 473.714L633.357 460.352C633.349 460.265 633.324 460.18 633.282 460.103C633.24 460.026 633.183 459.959 633.113 459.906C633.044 459.852 632.964 459.814 632.879 459.793C632.794 459.772 632.705 459.769 632.619 459.784C632.533 459.8 632.451 459.833 632.378 459.881C632.305 459.93 632.243 459.993 632.196 460.067C632.149 460.141 632.118 460.224 632.105 460.311C632.092 460.397 632.097 460.486 632.12 460.57L634.545 473.932L621.183 476.357C621.096 476.364 621.011 476.39 620.934 476.432C620.857 476.474 620.79 476.531 620.737 476.601C620.683 476.67 620.645 476.75 620.624 476.835C620.603 476.92 620.6 477.009 620.616 477.095C620.631 477.181 620.664 477.263 620.713 477.336C620.761 477.409 620.825 477.471 620.899 477.518C620.973 477.565 621.055 477.596 621.142 477.609C621.229 477.622 621.317 477.617 621.402 477.594L634.763 475.169L637.188 488.531C637.217 488.698 637.311 488.847 637.45 488.944C637.589 489.042 637.761 489.081 637.928 489.052C638.095 489.023 638.244 488.929 638.342 488.79C638.44 488.651 638.478 488.48 638.449 488.312L636.024 474.951L649.41 472.526C649.57 472.489 649.709 472.391 649.798 472.254C649.886 472.117 649.919 471.95 649.887 471.79C649.856 471.629 649.763 471.487 649.629 471.394C649.495 471.3 649.329 471.263 649.168 471.289Z" fill="#FAFAFA"/>
<path d="M400.896 536.4C399.487 536.376 398.116 535.936 396.955 535.136C395.795 534.335 394.897 533.21 394.374 531.901C393.851 530.592 393.727 529.157 394.016 527.778C394.306 526.398 394.996 525.135 396.002 524.147C397.007 523.158 398.281 522.489 399.666 522.222C401.05 521.956 402.482 522.105 403.782 522.649C405.082 523.194 406.193 524.111 406.973 525.285C407.754 526.458 408.171 527.837 408.171 529.246C408.171 530.196 407.982 531.136 407.615 532.012C407.248 532.888 406.71 533.682 406.033 534.348C405.356 535.014 404.553 535.538 403.671 535.891C402.789 536.243 401.846 536.416 400.896 536.4ZM400.896 523.378C399.735 523.378 398.601 523.722 397.636 524.367C396.671 525.012 395.919 525.928 395.474 527C395.03 528.073 394.914 529.253 395.14 530.391C395.367 531.53 395.926 532.575 396.747 533.396C397.567 534.217 398.613 534.776 399.751 535.002C400.89 535.228 402.07 535.112 403.142 534.668C404.214 534.224 405.131 533.472 405.776 532.507C406.42 531.542 406.765 530.407 406.765 529.246C406.733 527.709 406.102 526.244 405.005 525.166C403.909 524.088 402.434 523.481 400.896 523.475V523.378Z" fill="#FAFAFA"/>
<path d="M665.876 313.688C667.67 313.688 668.81 317.811 666.579 317.738C664.348 317.665 663.984 313.688 665.876 313.688Z" fill="#003D23"/>
<path d="M534.344 349.529C534.878 351.106 531.507 353.725 531.143 351.954C530.779 350.184 533.811 347.953 534.344 349.529Z" fill="#003D23"/>
<path d="M465.959 369.439C466.905 367.669 470.809 367.863 469.936 369.633C469.063 371.403 464.843 371.5 465.959 369.439Z" fill="#003D23"/>
<path d="M370.705 435.981C362.945 409.718 363.939 408.287 362.654 408.457L297.785 416.581C297.62 416.605 297.471 416.691 297.367 416.822C297.263 416.952 297.213 417.118 297.227 417.284L303.92 470.925C303.945 471.09 304.031 471.24 304.161 471.343C304.292 471.447 304.457 471.497 304.624 471.483C342.89 466.633 340.514 467.045 340.756 466.802C372.475 434.671 370.85 436.538 370.705 435.981ZM340.004 465.687L305.109 470.076L298.561 417.769L307.437 416.654L355.355 450.191L340.004 465.687Z" fill="#FAFAFA"/>
<path d="M320.168 367.377C321.962 366.529 321.962 370.506 320.483 370.967C319.004 371.427 319.028 367.911 320.168 367.377Z" fill="#003D23"/>
<path d="M674.8 348.171L676.449 355.859L683.554 354.355L681.614 345.286C681.256 343.571 680.291 342.043 678.897 340.983C677.502 339.923 675.772 339.401 674.024 339.514C674.632 342.358 674.892 345.265 674.8 348.171Z" fill="#FAFAFA"/>
<path d="M645.943 362.309L653.048 360.806L651.932 355.471C651.932 355.471 650.405 345.528 650.186 344.51C649.189 344.644 648.23 344.983 647.37 345.507C646.51 346.031 645.769 346.727 645.192 347.552C644.615 348.378 644.216 349.313 644.02 350.301C643.823 351.288 643.834 352.305 644.051 353.288L645.943 362.309Z" fill="#FAFAFA"/>
<path d="M317.282 412.095L324.557 411.197L323.636 403.68C323.636 403.68 323.636 395.289 323.636 395.022C321.414 395.336 319.405 396.512 318.043 398.295C316.682 400.079 316.077 402.327 316.361 404.553L317.282 412.095Z" fill="#FAFAFA"/>
<path d="M347.74 408.287L355.015 407.39L354.094 399.897C353.833 397.794 352.795 395.865 351.184 394.489C349.355 394.984 347.501 395.381 345.63 395.677C346.78 399.794 347.487 404.021 347.74 408.287Z" fill="#FAFAFA"/>
<path d="M320.168 367.377C321.962 366.529 321.962 370.506 320.483 370.967C319.004 371.427 319.028 367.911 320.168 367.377Z" fill="#003D23"/>
<path d="M465.959 369.439C466.905 367.669 470.809 367.863 469.936 369.633C469.063 371.403 464.843 371.5 465.959 369.439Z" fill="#003D23"/>
<path d="M531.143 351.833C531.507 353.725 534.902 351.106 534.344 349.408C533.786 347.711 530.707 349.675 531.143 351.833Z" fill="#003D23"/>
<path d="M665.876 313.688C667.671 313.688 668.786 317.811 666.579 317.738C664.373 317.665 663.985 313.688 665.876 313.688Z" fill="#003D23"/>
<path d="M705.307 434.55C701.502 432.976 697.597 431.655 693.618 430.597C693.814 429.23 693.814 427.842 693.618 426.475C693.592 426.312 693.505 426.164 693.376 426.062C690.441 423.977 682.148 419.054 675.576 415.077C675.504 415.034 675.425 415.006 675.342 414.993C675.26 414.981 675.175 414.985 675.094 415.006C675.013 415.026 674.937 415.062 674.87 415.112C674.803 415.161 674.746 415.224 674.703 415.295C674.66 415.367 674.632 415.447 674.619 415.529C674.607 415.612 674.611 415.696 674.631 415.777C674.652 415.858 674.688 415.935 674.737 416.002C674.787 416.069 674.85 416.126 674.921 416.168C680.693 419.636 689.471 424.874 692.406 426.936C692.641 429.393 692.352 431.873 691.557 434.21C687.968 431.907 664.882 417.235 664.882 417.235C664.812 417.191 664.734 417.161 664.652 417.146C664.57 417.132 664.486 417.134 664.405 417.152C664.324 417.17 664.247 417.204 664.179 417.251C664.111 417.299 664.053 417.359 664.009 417.43C663.964 417.5 663.934 417.578 663.919 417.659C663.905 417.741 663.907 417.825 663.925 417.906C663.943 417.987 663.977 418.064 664.024 418.132C664.072 418.2 664.133 418.258 664.203 418.303C664.203 418.303 687.677 433.144 691.072 435.277C687.968 443.523 680.353 451.695 675.14 452.98C617.522 420.509 610.95 416.484 605.154 410.033C599.358 403.583 597.224 391.991 588.325 351.833C588.293 351.7 588.219 351.581 588.115 351.494C588.01 351.406 587.879 351.355 587.743 351.348C582.893 351.057 581.632 349.238 581.171 350.402C581.113 350.557 581.115 350.729 581.178 350.881C581.241 351.034 581.36 351.158 581.51 351.227C583.271 351.935 585.125 352.384 587.015 352.561C585.672 366.492 582.718 380.22 578.212 393.47C577.281 395.199 576.47 396.989 575.787 398.83C575.254 400.382 590.337 465.541 590.653 467.118C585.803 472.21 568.828 477.642 558.376 474.805C541.619 409.67 540.407 402.831 541.134 393.81C541.789 386.05 545.572 376.689 566.403 331.318C566.572 330.93 566.403 331.124 565.093 327.486C568.951 328.226 572.893 328.422 576.806 328.068C579.231 338.544 579.498 340.363 584.081 340.193C584.164 340.187 584.245 340.165 584.319 340.127C584.393 340.09 584.459 340.038 584.513 339.975C584.567 339.912 584.608 339.839 584.634 339.759C584.66 339.68 584.669 339.597 584.663 339.514C584.66 339.432 584.64 339.352 584.605 339.278C584.57 339.204 584.521 339.138 584.46 339.083C584.399 339.029 584.327 338.988 584.249 338.962C584.172 338.936 584.09 338.926 584.008 338.932C580.734 339.102 580.637 338.762 578.091 328.044C589.324 326.939 600.232 323.644 610.198 318.344C615.048 339.417 621.523 371.039 623.536 392.088C623.536 392.452 623.366 392.355 629.356 396.259C629.497 396.352 629.67 396.386 629.836 396.352C630.002 396.318 630.147 396.219 630.241 396.077C630.334 395.936 630.367 395.763 630.333 395.597C630.299 395.431 630.2 395.285 630.059 395.192C627.804 393.737 626.009 392.525 624.748 391.676C622.711 370.433 616.285 338.69 611.338 317.689C614.43 315.95 617.277 313.805 619.801 311.311C621.79 319.726 623.73 328.65 624.991 336.168C630.398 368.444 629.428 368.517 630.568 368.517C630.66 368.518 630.75 368.499 630.834 368.462C630.918 368.424 630.992 368.369 631.052 368.3C631.112 368.23 631.156 368.149 631.182 368.061C631.207 367.973 631.213 367.88 631.199 367.79C626.058 333.84 625.16 326.055 615.145 287.474C625.281 288.856 627.513 290.093 630.495 292.324C633.478 294.555 634.424 298.701 641.893 331.318C642.111 333.33 644.318 333.912 646.476 333.743C645.288 335.804 643.154 338.593 643.154 340.314C643.268 342.686 644.041 344.978 645.385 346.935C645.472 347.079 645.612 347.184 645.776 347.225C645.94 347.266 646.113 347.24 646.258 347.153C646.402 347.066 646.507 346.925 646.548 346.762C646.589 346.598 646.563 346.425 646.476 346.28C645.242 344.525 644.528 342.457 644.415 340.314C644.415 338.447 648.222 334.3 648.416 332.166C648.494 330.523 648.272 328.88 647.761 327.316C653.952 324.875 660.511 323.498 667.161 323.242C668.398 328.092 671.429 332.021 673.345 340.46C673.966 343.803 674.073 347.221 673.66 350.596C673.379 351.294 672.835 351.853 672.146 352.153C671.456 352.452 670.676 352.468 669.974 352.197C670.165 350.108 670.165 348.005 669.974 345.916C669.974 345.749 669.908 345.589 669.79 345.47C669.671 345.352 669.511 345.286 669.344 345.286C669.177 345.286 669.016 345.352 668.898 345.47C668.78 345.589 668.713 345.749 668.713 345.916C668.883 347.877 668.883 349.848 668.713 351.809C668.519 353.555 666.555 354.816 664.251 353.506C664.421 351.489 664.421 349.461 664.251 347.444C664.251 347.277 664.185 347.116 664.067 346.998C663.948 346.88 663.788 346.813 663.621 346.813C663.454 346.813 663.293 346.88 663.175 346.998C663.057 347.116 662.99 347.277 662.99 347.444C663.301 349.469 663.301 351.53 662.99 353.555C662.84 354.012 662.578 354.424 662.228 354.754C661.878 355.084 661.451 355.321 660.986 355.444C660.521 355.567 660.033 355.572 659.565 355.458C659.098 355.344 658.666 355.115 658.31 354.792C658.506 352.77 658.432 350.732 658.092 348.729C658.063 348.562 657.969 348.413 657.83 348.315C657.691 348.218 657.519 348.179 657.352 348.208C657.185 348.237 657.036 348.331 656.938 348.47C656.841 348.608 656.802 348.78 656.831 348.947C657.122 350.677 657.219 352.434 657.122 354.185C657.122 354.829 656.866 355.445 656.412 355.9C655.957 356.355 655.34 356.61 654.697 356.61C654.054 356.61 653.437 356.355 652.982 355.9C652.527 355.445 652.272 354.829 652.272 354.185C651.854 349.749 651.042 345.359 649.847 341.066C649.789 340.909 649.671 340.781 649.518 340.71C649.366 340.64 649.192 340.632 649.034 340.69C648.877 340.748 648.749 340.866 648.678 341.019C648.608 341.171 648.601 341.345 648.659 341.503C649.839 345.692 650.65 349.976 651.084 354.307C651.133 355.097 651.434 355.851 651.943 356.458C652.451 357.065 653.141 357.494 653.911 357.681C654.68 357.868 655.489 357.803 656.22 357.497C656.951 357.191 657.564 356.66 657.971 355.98C658.447 356.327 658.992 356.568 659.569 356.687C660.146 356.806 660.742 356.8 661.316 356.669C661.891 356.538 662.431 356.285 662.899 355.928C663.368 355.571 663.755 355.117 664.033 354.598C664.498 354.896 665.019 355.097 665.564 355.186C666.11 355.276 666.668 355.253 667.204 355.119C667.74 354.985 668.243 354.743 668.682 354.407C669.121 354.071 669.486 353.649 669.756 353.167C670.779 353.537 671.907 353.49 672.896 353.037C673.885 352.583 674.656 351.759 675.043 350.742C675.516 347.152 675.418 343.51 674.752 339.951C673.869 336.086 672.568 332.33 670.872 328.747C671.747 328.451 672.492 327.856 672.975 327.068C673.458 326.279 673.649 325.346 673.515 324.431C665.44 283.351 660.687 272.972 651.375 264.363C635.661 249.813 616.721 248.746 589.101 245.303C585.972 244.915 578.091 239.725 572.271 234.439C570.331 218.846 569.846 217.464 562.11 216.591C561.601 213.147 559.322 212.638 551.004 212.056C545.16 211.644 542.492 212.056 541.304 213.463C540.116 214.869 540.31 216.397 540.795 218.967C541.498 222.775 543.535 223.817 547.148 224.036C550.373 242.296 551.295 244.891 554.544 245.254C556.703 245.473 558.279 244.939 561.068 242.393C561.068 245.036 560.825 249.668 558.061 251.365C549.355 256.385 545.766 258.471 542.735 262.763C536.987 270.911 537.303 276.222 536.26 311.845C530.634 316.695 524.377 321.787 518.848 326.395C506.723 336.095 506.723 336.095 506.723 337.283C506.675 338.608 507.134 339.9 508.009 340.896C507.507 341.276 506.891 341.472 506.263 341.454C501.582 341.624 497.678 340.072 495.811 342.133L494.865 343.2L492.44 342.448C489.773 341.697 488.148 344.655 484.122 346.935C482.643 347.783 481.697 347.517 476.193 346.765C475.608 345.475 474.785 344.307 473.768 343.321C473.186 342.812 440.933 339.029 440.133 338.932C438.702 293.997 437.223 286.843 432.179 282.308C428.687 279.156 422.94 277.701 414.501 277.992C412.875 276.988 411.498 275.629 410.475 274.015C411.56 274.168 412.653 274.249 413.749 274.257C417.095 274.257 418.041 273.384 418.817 271.687C420.03 269.019 420.296 263.684 419.06 250.347C421.771 249.083 424.073 247.083 425.704 244.575C426.343 243.747 426.654 242.712 426.576 241.668C426.499 240.624 426.038 239.646 425.284 238.922C424.529 238.197 423.533 237.776 422.487 237.741C421.441 237.706 420.419 238.059 419.617 238.731C418.866 235.094 414.088 235.215 412.342 237.688C411.836 237.208 411.217 236.863 410.542 236.685C409.867 236.508 409.158 236.503 408.481 236.673C407.804 236.842 407.181 237.179 406.669 237.654C406.157 238.128 405.773 238.724 405.552 239.386C405.026 238.915 404.38 238.597 403.686 238.468C402.991 238.338 402.275 238.402 401.614 238.653C400.954 238.903 400.374 239.33 399.94 239.887C399.505 240.444 399.232 241.109 399.15 241.811C398.593 241.455 397.945 241.265 397.283 241.265C396.621 241.265 395.973 241.455 395.416 241.811C393.791 243.023 391.099 247.873 400.751 266.497C383.606 281.047 374.076 284.297 367.043 288.177C345.752 295.694 327.492 306.946 320.386 317.447C314.203 326.613 314.275 342.691 316.87 377.587C316.628 379.527 319.926 379.769 321.89 379.769C321.755 384.9 321.933 390.035 322.423 395.144C322.433 395.237 322.464 395.328 322.513 395.408C322.562 395.488 322.629 395.557 322.708 395.608C322.787 395.659 322.877 395.692 322.97 395.704C323.063 395.716 323.158 395.707 323.248 395.677C323.087 398.269 323.087 400.869 323.248 403.462C323.349 404.13 323.653 404.752 324.117 405.243C324.581 405.735 325.184 406.073 325.846 406.213C326.508 406.352 327.196 406.287 327.819 406.025C328.443 405.763 328.971 405.317 329.335 404.747C329.644 405.287 330.093 405.735 330.635 406.042C331.177 406.349 331.791 406.505 332.414 406.492C333.037 406.48 333.645 406.3 334.174 405.972C334.703 405.643 335.134 405.178 335.421 404.626C335.793 405.128 336.292 405.522 336.867 405.767C337.442 406.013 338.072 406.1 338.692 406.021C339.312 405.942 339.9 405.699 340.395 405.318C340.89 404.936 341.274 404.429 341.508 403.849C342.027 404.438 342.731 404.834 343.504 404.971C344.277 405.108 345.074 404.978 345.764 404.604C346.453 404.229 346.996 403.632 347.302 402.909C347.608 402.186 347.66 401.38 347.449 400.624C347.449 400.624 346.77 397.229 346.504 396.065C348.405 395.96 350.267 395.482 351.984 394.659C353.366 393.519 352.396 385.686 351.281 383.964C349.307 381.693 347.211 379.531 345 377.49C346.698 377.15 349.22 376.398 349.147 374.652C348.71 365.607 348.056 345.14 348.031 334.397L354.627 332.312C353.1 349.141 352.615 365.559 355.961 381.903C359.55 400.6 366.049 424.85 369.371 435.981C363.77 441.679 322.278 483.487 319.586 486.615C317.428 489.04 319.926 492.944 322.569 495.32C320.144 498.061 316.191 502.595 314.445 504.56C309.28 510.089 335.979 527.888 342.987 532.253C348.516 535.721 365.467 545.93 364.182 539.528C364.861 529.343 354.967 520.516 351.717 511.81C353.253 512.48 354.895 512.874 356.567 512.974C358.58 512.974 358.774 512.15 359.72 511.132C406.522 460.206 409.457 456.084 410.645 447.208C411.639 439.934 409.626 424.122 407.711 408.02C415.786 412.87 425.486 418.642 437.005 426.038C437.781 433.653 439.43 473.568 438.945 488.288C438.435 491.222 442.315 492.604 445.25 493.138C444.546 497.285 442.509 503.274 442.315 505.699C441.685 513.435 479.612 518.285 491.3 518.285C494.016 518.285 500.03 518.285 499.23 515.618C497.387 504.56 481.794 501.504 474.81 494.302C477.235 494.156 480.727 493.429 480.63 491.052C477.817 416.896 476.944 408.336 471.1 399.606C465.595 391.361 461.061 387.723 437.902 373.488C446.292 373.998 457.617 374.095 473.016 374.095C473.201 374.108 473.384 374.047 473.525 373.925C474.311 373.15 474.996 372.278 475.562 371.33L479.515 371.815C479.351 372.483 479.403 373.185 479.663 373.821C479.923 374.457 480.378 374.994 480.963 375.355C481.548 375.717 482.232 375.883 482.917 375.831C483.603 375.778 484.254 375.51 484.777 375.065C484.922 375.591 485.196 376.072 485.573 376.467C485.951 376.861 486.42 377.155 486.939 377.323C487.458 377.492 488.011 377.528 488.548 377.431C489.085 377.333 489.589 377.103 490.015 376.762C490.233 377.275 490.577 377.724 491.015 378.068C491.453 378.411 491.971 378.639 492.52 378.728C493.07 378.818 493.633 378.767 494.157 378.58C494.682 378.393 495.151 378.076 495.52 377.66C495.832 378.21 496.301 378.655 496.866 378.939C497.432 379.223 498.069 379.333 498.697 379.255C499.325 379.177 499.916 378.915 500.395 378.502C500.874 378.088 501.22 377.542 501.388 376.932C501.388 376.714 501.388 376.52 501.388 376.301C504.347 377.053 506.942 377.126 508.251 374.361C511.016 375.283 512.834 373.901 513.926 371.209C514.471 371.294 515.03 371.215 515.531 370.982C516.032 370.748 516.452 370.372 516.739 369.899C517.158 369.424 517.447 368.848 517.579 368.228C517.711 367.608 517.68 366.964 517.49 366.359C518.079 365.863 518.535 365.23 518.818 364.514C519.102 363.799 519.204 363.025 519.115 362.261C520.085 361.315 521.54 359.981 523.044 358.647C524.717 360.005 527.578 361.412 528.936 359.86C538.636 352.439 557.891 335.877 564.632 329.887L565.093 331.027C544.287 376.374 540.504 385.759 539.849 393.713C539.097 402.928 540.31 409.815 557.236 475.46C557.264 475.567 557.318 475.666 557.395 475.747C557.471 475.827 557.567 475.887 557.673 475.921C559.256 476.365 560.881 476.641 562.523 476.745C555.927 485.399 550.738 495.04 547.148 505.311C545.863 509.482 583.523 495.878 595.648 483.486C595.734 483.404 595.794 483.298 595.82 483.181C595.845 483.065 595.836 482.943 595.794 482.832C594.136 478.229 592.041 473.795 589.537 469.591C590.338 469.032 591.07 468.381 591.72 467.651C591.79 467.579 591.841 467.489 591.866 467.392C591.892 467.294 591.891 467.191 591.865 467.093C586.385 443.11 581.923 424.268 576.951 399.024C578.673 394.174 582.699 387.893 591.234 371.427C597.079 397.496 599.31 405.571 604.063 410.858C610.004 417.454 616.6 421.503 674.606 454.168C675.164 454.508 677.371 453.465 677.953 453.15C679.214 466.608 685.082 491.95 687.653 489.088C695.437 479.801 705.137 446.917 705.646 434.962C705.623 434.873 705.581 434.79 705.522 434.718C705.463 434.647 705.39 434.59 705.307 434.55ZM671.842 323C669.271 321.715 664.009 321.884 656.564 323.509C652.733 324.358 645.288 326.298 642.742 329.256C641.844 325.279 641.02 321.763 640.317 318.611C643.712 312.112 664.858 308.062 669.417 311.336C670.217 314.803 671.017 318.659 671.842 322.83V323ZM582.117 243.872C579.61 249.863 576.35 255.51 572.417 260.677C569.827 257.788 567.596 254.596 565.772 251.171C570.933 248.871 575.787 245.939 580.225 242.441L582.117 243.872ZM554.617 244.406C552.192 244.139 551.319 241.132 548.385 224.448C550.495 224.448 553.235 224.06 556.484 223.672C559.394 227.309 560.558 228.304 561.528 227.988C562.013 227.819 562.28 227.285 562.28 226.436C562.28 222.847 565.505 223.381 565.578 229.128C565.586 229.251 565.628 229.368 565.699 229.468C569.47 234.279 573.98 238.461 579.061 241.859C574.739 245.19 570.023 247.975 565.02 250.153C563.832 249.47 562.78 248.574 561.916 247.51C561.916 247.194 561.916 246.879 562.086 246.564C563.902 243.877 565.178 240.862 565.845 237.688C565.869 237.556 565.85 237.42 565.791 237.299C565.732 237.178 565.636 237.079 565.517 237.017C565.397 236.955 565.261 236.932 565.128 236.953C564.996 236.973 564.873 237.035 564.778 237.131C558.594 243.63 557.042 244.503 554.569 244.236L554.617 244.406ZM561.528 248.989C562.312 249.823 563.21 250.541 564.196 251.123C563.129 253.548 561.941 256.312 561.116 258.907C560.582 255.553 560.706 252.127 561.48 248.819L561.528 248.989ZM409.117 260.653C409.212 260.537 409.263 260.391 409.263 260.241C409.263 260.091 409.212 259.945 409.117 259.829C406.037 254.979 408.923 252.554 410.451 255.706C411.639 258.131 414.476 258.131 414.331 252.117C415.391 251.831 416.429 251.467 417.435 251.026C418.769 265.576 418.235 270.086 416.829 272.051C415.18 273.651 409.966 268.534 408.365 266.91C408.276 266.813 408.158 266.746 408.029 266.72C407.9 266.693 407.766 266.708 407.646 266.761C407.525 266.815 407.425 266.905 407.358 267.018C407.291 267.132 407.262 267.264 407.274 267.395C407.541 272.075 408.462 275.567 412.124 278.21C401.091 279.22 390.178 281.275 379.532 284.345C366.146 287.886 381.593 286.285 409.117 260.653ZM324.242 403.437C324.048 401.57 324.242 399.557 324.242 395.823C324.242 392.597 327.88 392.307 328.098 395.435C328.292 398.102 328.34 400.018 328.413 402.71C328.51 403.256 328.385 403.819 328.067 404.274C327.748 404.729 327.262 405.038 326.716 405.135C326.169 405.231 325.606 405.107 325.151 404.788C324.697 404.47 324.387 403.984 324.291 403.437H324.242ZM330.038 403.68C329.698 401.764 329.747 399.727 329.504 395.798C329.31 392.428 333.093 391.991 333.506 395.216C333.869 398.054 334.039 400.066 334.282 402.71C334.314 403.226 334.162 403.736 333.853 404.15C333.544 404.565 333.098 404.856 332.595 404.972C332.091 405.089 331.563 405.023 331.104 404.786C330.644 404.549 330.284 404.157 330.086 403.68H330.038ZM335.931 403.292C335.494 401.376 335.421 399.121 335.009 395.313C334.718 392.694 336.876 391.749 338.186 392.888C336.222 394.853 336.973 396.841 338.865 396.841H339.447C339.714 398.466 339.859 399.63 340.223 402.176C340.262 402.696 340.117 403.213 339.814 403.638C339.511 404.063 339.069 404.368 338.565 404.5C338.061 404.633 337.526 404.584 337.054 404.364C336.581 404.143 336.201 403.764 335.979 403.292H335.931ZM341.872 402.419C341.385 400.537 341.02 398.625 340.781 396.696C341.993 396.696 343.497 396.526 345 396.332C345.267 397.569 345.97 400.988 345.97 400.988C346.052 401.493 345.953 402.01 345.693 402.45C345.432 402.89 345.025 403.224 344.543 403.394C344.06 403.565 343.534 403.56 343.055 403.382C342.575 403.204 342.174 402.863 341.92 402.419H341.872ZM345.558 380.182C347.143 381.604 348.618 383.144 349.971 384.789C351.042 387.668 351.368 390.771 350.917 393.81C349.729 394.828 341.047 395.507 338.792 395.507C338.404 395.507 338.21 395.508 338.186 395.168C338.186 394.368 339.592 392.21 344.733 390.924C344.901 390.899 345.051 390.807 345.151 390.671C345.251 390.535 345.293 390.364 345.267 390.197C345.241 390.03 345.15 389.879 345.014 389.779C344.877 389.679 344.707 389.638 344.539 389.663C337.968 390.051 334.5 388.014 333.578 383.237C333.571 383.15 333.545 383.065 333.503 382.988C333.461 382.911 333.404 382.844 333.335 382.79C333.265 382.737 333.185 382.699 333.1 382.678C333.015 382.657 332.927 382.654 332.84 382.669C332.754 382.684 332.672 382.717 332.599 382.766C332.526 382.815 332.465 382.878 332.418 382.952C332.371 383.026 332.34 383.109 332.327 383.196C332.314 383.282 332.319 383.371 332.342 383.455C332.644 385.558 333.706 387.478 335.329 388.85C336.951 390.222 339.02 390.951 341.144 390.9C340.462 391.205 339.812 391.579 339.204 392.015C338.833 391.656 338.38 391.395 337.883 391.254C337.387 391.113 336.863 391.097 336.359 391.207C335.855 391.317 335.386 391.551 334.993 391.887C334.601 392.222 334.299 392.65 334.112 393.131C333.807 392.69 333.394 392.336 332.912 392.102C332.429 391.869 331.895 391.764 331.36 391.798C330.826 391.832 330.309 392.004 329.861 392.297C329.412 392.59 329.047 392.995 328.801 393.47C328.499 392.974 328.061 392.573 327.54 392.316C327.018 392.059 326.434 391.957 325.856 392.02C325.278 392.084 324.73 392.311 324.276 392.676C323.823 393.04 323.483 393.526 323.296 394.077C322.819 387.864 322.73 381.628 323.03 375.404C329.222 373.937 335.585 373.317 341.945 373.561C341.99 374.875 342.345 376.16 342.982 377.31C343.618 378.461 344.517 379.445 345.606 380.182H345.558ZM317.719 376.156C317.452 372.421 317.21 368.881 316.991 365.583C321.09 360.369 343.036 358.308 347.134 361.824C347.28 366.238 347.425 370.263 347.571 373.367C342.575 370.918 322.739 372.64 317.767 376.156H317.719ZM362.8 536.958C356.01 527.646 324.8 505.433 316.555 504.075C320.144 500.049 326.037 493.065 330.353 488.506C337.653 491.965 344.482 496.341 350.675 501.528C344.709 513.484 361.466 524.396 362.848 536.958H362.8ZM440.4 486.324C440.763 469.688 439.09 432.319 438.363 425.699C438.352 425.602 438.32 425.508 438.27 425.424C438.22 425.341 438.152 425.269 438.072 425.214C393.985 396.962 376.525 391.336 373.858 379.09C373.822 378.926 373.723 378.783 373.582 378.692C373.441 378.601 373.27 378.57 373.106 378.605C372.942 378.641 372.799 378.74 372.708 378.881C372.617 379.022 372.585 379.193 372.621 379.357C374.1 386.05 379.508 390.779 390.372 397.593C397.676 412.66 404.152 428.114 409.772 443.886C409.384 455.041 406.983 458.024 359.38 509.798C357.95 504.681 347.522 497.188 343.109 494.205C338.259 490.907 328.559 484.917 322.52 485.402C327.37 480.358 364.982 442.358 370.608 436.611C370.687 436.529 370.744 436.428 370.774 436.318C370.803 436.208 370.805 436.092 370.778 435.981C367.431 424.85 360.811 400.406 357.125 381.758C355.982 376.022 355.253 370.211 354.943 364.37C363.042 358.744 378.999 355.204 400.411 354.258C400.945 367.062 404.558 368.493 413.361 373.658C445.031 392.379 452.549 396.817 458.66 405.886C463.098 412.482 462.467 422.546 464.334 484.408C458.975 483.996 444.595 483.05 440.327 486.324H440.4ZM497.508 513.75C489.094 508.464 451.433 501.626 444.013 504.172C445.153 498.546 446.826 496.266 447.432 485.572C455.06 484.979 462.731 485.321 470.276 486.591C470.179 500.631 492.925 502.207 497.436 513.75H497.508ZM470.082 400.382C475.683 408.748 476.605 417.138 479.321 488.724C476.338 486.008 469.621 485.014 465.498 484.602C463.607 422.522 464.286 412.191 459.581 405.208C452.913 395.338 444.352 390.658 409.166 369.803C403.685 366.553 401.891 363.012 401.551 354.21L407.808 354.04C410.233 362.746 413.312 366.165 418.793 369.584C422.018 371.621 427.062 372.737 435.234 373.391C459.994 388.475 464.553 392.088 470.082 400.382ZM457.059 372.834C435.234 372.64 424.661 371.791 419.472 368.517C409.457 362.188 407.686 355.64 403.2 314.149C403.174 313.996 403.098 313.856 402.984 313.75C402.87 313.645 402.724 313.581 402.57 313.567C402.412 313.572 402.261 313.633 402.146 313.74C402.03 313.847 401.956 313.992 401.939 314.149C401.042 325.231 400.63 336.192 400.266 346.425C379.144 346.983 362.824 350.233 354.579 355.592C354.896 338.292 356.395 321.035 359.065 303.939C359.088 303.772 359.043 303.603 358.94 303.469C358.838 303.335 358.687 303.247 358.519 303.224C358.352 303.202 358.183 303.246 358.049 303.349C357.915 303.451 357.827 303.603 357.804 303.77C356.834 311.045 355.961 317.859 355.379 324.188C350.121 328.37 344.641 332.264 338.962 335.852C338.833 335.933 338.738 336.058 338.694 336.203C338.65 336.348 338.66 336.505 338.722 336.643C338.784 336.782 338.894 336.893 339.031 336.958C339.169 337.022 339.325 337.034 339.471 336.992C341.363 336.483 343.982 335.707 346.746 334.907C346.746 341.479 347.013 351.469 347.304 360.296C341.629 357.386 322.787 359.132 317.113 363.91C315.561 338.641 316.215 325.861 321.356 318.271C329.504 306.025 353.657 292.518 379.896 285.558C408.535 277.992 424.322 277.313 431.063 283.375C435.768 287.595 437.15 294.627 438.581 338.908C437.805 338.908 437.15 338.714 436.641 338.69C436.558 338.68 436.474 338.687 436.394 338.71C436.314 338.733 436.239 338.771 436.174 338.823C436.108 338.875 436.054 338.939 436.013 339.012C435.973 339.085 435.947 339.165 435.938 339.247C435.928 339.33 435.935 339.414 435.958 339.494C435.981 339.574 436.019 339.649 436.071 339.715C436.123 339.78 436.187 339.834 436.26 339.875C436.332 339.915 436.412 339.941 436.495 339.951C438.92 340.217 449.76 341.503 459.096 342.667C464.359 347.832 463.946 366.917 457.059 372.834ZM472.798 372.834H458.975C464.989 366.165 465.692 349.481 461.061 342.861C466.347 343.54 470.955 344.146 472.895 344.485C478.375 349.675 479.175 366.65 472.798 372.882V372.834ZM484.292 373.585C484.024 373.988 483.617 374.277 483.149 374.398C482.681 374.519 482.184 374.463 481.755 374.24C481.326 374.018 480.993 373.645 480.822 373.194C480.65 372.742 480.651 372.242 480.824 371.791C481.455 370.166 482.134 368.542 482.595 367.62C483.88 364.977 486.863 366.068 485.941 369.002C485.65 370.312 484.704 372.664 484.292 373.634V373.585ZM490.888 370.118C490.5 371.767 490.088 373.464 489.603 374.968C488.875 377.393 485.238 376.132 486.014 373.294C486.305 372.252 486.935 370.263 487.42 368.833C488.366 366.068 491.616 367.135 490.888 370.166V370.118ZM495.738 371.379C495.525 373.01 495.226 374.629 494.841 376.229C494.696 376.724 494.361 377.141 493.908 377.389C493.456 377.637 492.923 377.695 492.428 377.55C491.933 377.406 491.515 377.07 491.267 376.618C491.02 376.165 490.962 375.633 491.106 375.137C491.422 373.755 491.882 371.888 492.295 370.287C493.095 367.475 496.175 368.42 495.762 371.5L495.738 371.379ZM500.588 372.131C500.544 373.667 500.39 375.199 500.127 376.714C499.691 378.824 496.296 378.144 496.466 376.326C496.466 375.501 496.975 372.615 497.242 371.209C497.775 368.444 500.685 369.269 500.588 372.179V372.131ZM516.908 365.268C514.879 363.214 512.476 361.567 509.827 360.418C509.681 360.353 509.515 360.347 509.365 360.4C509.214 360.453 509.089 360.561 509.015 360.703C508.941 360.845 508.923 361.01 508.966 361.164C509.009 361.318 509.109 361.45 509.245 361.533C510.628 362.261 515.987 364.88 516.52 366.941C516.586 367.319 516.561 367.708 516.447 368.075C516.333 368.442 516.134 368.776 515.866 369.051C515.017 370.215 513.853 370.724 507.305 366.165C507.167 366.069 506.996 366.031 506.83 366.06C506.664 366.09 506.517 366.184 506.42 366.323C506.324 366.461 506.286 366.632 506.316 366.798C506.345 366.964 506.439 367.111 506.578 367.208C508.508 368.662 510.609 369.876 512.834 370.821C512.684 371.36 512.415 371.858 512.045 372.278C511.675 372.698 511.216 373.029 510.7 373.246C508.663 373.876 505.85 371.427 504.42 370.433C504.278 370.34 504.105 370.307 503.939 370.341C503.773 370.375 503.628 370.473 503.534 370.615C503.441 370.756 503.408 370.929 503.442 371.095C503.476 371.261 503.575 371.407 503.716 371.5C504.842 372.373 506.016 373.183 507.233 373.925C506.19 376.059 504.104 375.719 501.728 375.113C501.728 374.143 501.873 373.173 501.898 372.203C502.043 368.493 498.527 367.159 496.805 369.269C496.652 368.815 496.386 368.408 496.032 368.085C495.678 367.763 495.247 367.537 494.781 367.427C494.315 367.318 493.828 367.33 493.368 367.461C492.907 367.592 492.488 367.839 492.149 368.178C492.016 367.688 491.756 367.241 491.397 366.882C491.037 366.523 490.59 366.264 490.1 366.132C489.609 366 489.093 365.998 488.601 366.127C488.11 366.256 487.661 366.512 487.299 366.868C486.475 364.443 483.08 363.982 481.552 367.111C481.14 367.935 480.558 369.269 480.024 370.676L476.314 370.215C479.219 363.258 479.375 355.457 476.75 348.39C478.484 348.68 480.233 348.874 481.988 348.972C482.933 349.013 483.868 348.777 484.68 348.293C488.463 346.159 490.233 343.443 491.955 343.928L493.895 344.51C491.931 346.935 489.991 349.699 487.493 353.337C484.995 356.974 491.034 359.836 498.333 351.639C500.871 352.798 503.643 353.354 506.432 353.264C513.901 357.144 517.709 360.224 518.024 362.721C518.04 363.209 517.948 363.695 517.755 364.143C517.563 364.592 517.273 364.992 516.908 365.316V365.268ZM518.8 360.951C517.66 358.526 514.411 356.101 508.639 352.852C509.533 352.692 510.405 352.423 511.234 352.051C511.362 351.971 511.457 351.846 511.501 351.701C511.545 351.556 511.535 351.399 511.473 351.261C511.412 351.122 511.302 351.011 511.164 350.946C511.027 350.882 510.87 350.87 510.725 350.912C508.728 351.64 506.602 351.945 504.481 351.807C502.36 351.669 500.291 351.092 498.406 350.111C498.276 350.046 498.129 350.028 497.987 350.059C497.846 350.09 497.72 350.168 497.63 350.281C491.955 356.877 486.935 356.15 488.487 353.87C490.953 350.089 493.666 346.476 496.611 343.055C497.387 342.182 499.206 342.351 501.461 342.57C508.542 343.249 507.475 342.885 512.883 338.326C518.358 342.625 523.015 347.874 526.633 353.822C524.668 355.64 520.958 358.938 518.8 361V360.951ZM537.812 351.251C534.781 353.676 531.919 356.101 529.543 357.944C529.058 352.27 515.89 336.75 509.876 335.489C512.083 333.621 515.187 331.075 518.727 328.214C526.875 329.135 538.321 344.17 537.812 351.227V351.251ZM562.256 319.726C557.406 306.534 550.689 287.037 550.398 284.612C549.913 279.531 549.913 274.416 550.398 269.335C550.368 269.186 550.288 269.051 550.171 268.955C550.054 268.858 549.907 268.805 549.755 268.805C549.603 268.805 549.456 268.858 549.339 268.955C549.221 269.051 549.141 269.186 549.112 269.335C548.615 274.504 548.615 279.709 549.112 284.879C549.331 286.673 552.726 296.834 556.387 307.31C557.612 316.292 558.09 325.361 557.818 334.422C552.507 339.029 545.451 345.043 539.049 350.33C538.515 342.667 528.282 329.329 519.988 327.268C525.493 322.806 531.652 317.81 537.181 313.009C537.249 312.953 537.303 312.882 537.341 312.803C537.379 312.723 537.399 312.636 537.4 312.548C538.394 276.828 538.176 271.663 543.656 263.878C548.094 257.573 557.454 254.178 559.613 252.093C559.409 255.454 559.629 258.827 560.267 262.132C560.306 262.27 560.388 262.391 560.502 262.478C560.616 262.564 560.755 262.611 560.898 262.611C561.041 262.611 561.18 262.564 561.293 262.478C561.407 262.391 561.49 262.27 561.528 262.132C561.735 261.055 562.018 259.993 562.377 258.956C562.72 260.132 563.183 261.27 563.759 262.351C563.202 267.758 560.34 304.449 560.34 307.116C561.884 310.529 563.856 313.731 566.209 316.646C566.268 316.71 566.339 316.76 566.418 316.794C566.497 316.829 566.583 316.847 566.669 316.847C566.756 316.847 566.841 316.829 566.92 316.794C567 316.76 567.071 316.71 567.13 316.646C568.221 315.458 574.041 308.329 573.92 307.286C573.12 301.32 567.712 266.691 566.645 262.375C567.459 261.078 568.18 259.724 568.803 258.325C569.761 259.659 570.832 260.909 572.004 262.06C572.063 262.127 572.136 262.181 572.218 262.217C572.299 262.254 572.388 262.273 572.477 262.273C572.567 262.273 572.655 262.254 572.737 262.217C572.818 262.181 572.891 262.127 572.95 262.06C577.064 256.695 580.479 250.827 583.111 244.6C587.718 247.291 588.47 247.025 593.781 247.631C620.335 250.832 636.364 252.748 650.429 265.77C658.237 273.045 662.796 281.581 669.004 309.832C662.675 307.262 644.754 310.923 639.904 316.962C635.054 296.325 634.109 293.512 631.296 291.451C626.882 288.225 624.021 286.964 598.461 284.539C598.316 284.528 598.172 284.567 598.052 284.65C597.933 284.733 597.846 284.855 597.806 284.995C597.766 285.135 597.775 285.284 597.833 285.418C597.89 285.551 597.992 285.661 598.122 285.728C604.433 288.997 610.496 292.725 616.261 296.883C616.77 298.871 617.303 301.029 617.861 303.26C606.536 315.507 574.987 323.63 562.256 319.702V319.726Z" fill="#003D23"/>
<path d="M654.624 346.959C654.476 346.948 654.337 346.887 654.228 346.787C654.12 346.686 654.048 346.552 654.026 346.406C654.003 346.259 654.031 346.11 654.104 345.981C654.178 345.853 654.293 345.753 654.43 345.698C657.461 344.752 667.428 342.23 670.532 341.697C670.617 341.674 670.705 341.669 670.792 341.682C670.878 341.695 670.961 341.726 671.035 341.773C671.109 341.82 671.172 341.882 671.221 341.954C671.27 342.027 671.303 342.109 671.318 342.196C671.333 342.282 671.33 342.37 671.31 342.455C671.289 342.541 671.25 342.62 671.197 342.69C671.143 342.759 671.076 342.817 670.999 342.859C670.922 342.901 670.838 342.926 670.75 342.933C665.27 343.903 654.867 346.959 654.624 346.959Z" fill="#003D23"/>
<path d="M624.845 368.687L637.819 399.096L648.368 396.841L647.179 391.24L652.805 390.051L653.993 395.653L690.635 387.869L689.447 382.267L695.097 381.055L696.285 386.656L706.81 384.425L706.325 351.106C618.273 369.802 624.699 368.347 624.845 368.687Z" fill="#FAFAFA"/>
<path d="M719.444 406.178L708.071 352.828L708.58 385.201C708.584 385.406 708.516 385.606 708.387 385.766C708.259 385.925 708.078 386.034 707.877 386.074L696.625 388.475L697.837 394.247L692.211 395.459L690.975 389.663L654.333 397.448L655.57 403.243L649.919 404.456L648.707 398.66L637.455 401.085C637.259 401.128 637.054 401.101 636.877 401.008C636.699 400.915 636.56 400.762 636.485 400.576L623.875 370.651L635.248 424.001C635.265 424.083 635.299 424.16 635.346 424.228C635.393 424.297 635.453 424.355 635.523 424.4C635.593 424.445 635.671 424.476 635.753 424.491C635.835 424.506 635.919 424.504 636 424.486L719.032 406.832C719.161 406.781 719.271 406.69 719.345 406.572C719.419 406.455 719.454 406.316 719.444 406.178Z" fill="#FAFAFA"/>
<path d="M324.29 403.437C324.096 401.57 324.29 399.557 324.29 395.823C324.29 392.598 327.928 392.307 328.146 395.435C328.34 398.102 328.389 400.018 328.461 402.71C328.558 403.263 328.431 403.832 328.108 404.291C327.785 404.75 327.293 405.063 326.74 405.159C326.187 405.255 325.618 405.128 325.158 404.805C324.699 404.482 324.387 403.99 324.29 403.437Z" fill="#00B868"/>
<path d="M330.086 403.68C329.747 401.764 329.795 399.727 329.553 395.799C329.359 392.428 333.142 391.991 333.554 395.217C333.918 398.054 334.087 400.067 334.33 402.71C334.413 403.255 334.287 403.811 333.977 404.266C333.667 404.722 333.196 405.043 332.659 405.166C332.121 405.289 331.558 405.204 331.081 404.928C330.603 404.652 330.248 404.206 330.086 403.68Z" fill="#00B868"/>
<path d="M335.979 403.292C335.543 401.376 335.47 399.121 335.058 395.313C334.767 392.694 336.925 391.749 338.234 392.888C336.27 394.853 337.022 396.841 338.913 396.841H339.495C339.762 398.466 339.908 399.63 340.271 402.176C340.35 402.72 340.226 403.273 339.922 403.731C339.618 404.188 339.156 404.517 338.625 404.655C338.093 404.794 337.529 404.731 337.041 404.479C336.553 404.228 336.175 403.805 335.979 403.292Z" fill="#00B868"/>
<path d="M341.92 402.419C341.433 400.537 341.069 398.625 340.829 396.696C342.041 396.696 343.545 396.526 345.048 396.332C345.315 397.569 346.018 400.988 346.018 400.988C346.142 401.513 346.066 402.065 345.807 402.537C345.547 403.01 345.122 403.37 344.613 403.547C344.104 403.725 343.547 403.708 343.05 403.5C342.553 403.291 342.15 402.906 341.92 402.419Z" fill="#00B868"/>
<path d="M345.606 380.182C347.191 381.604 348.666 383.144 350.02 384.789C351.091 387.668 351.416 390.771 350.965 393.81C349.777 394.828 341.096 395.508 338.84 395.508C338.452 395.508 338.258 395.508 338.234 395.168C338.234 394.368 339.641 392.21 344.782 390.924C344.949 390.899 345.099 390.807 345.199 390.671C345.299 390.535 345.341 390.364 345.315 390.197C345.289 390.03 345.198 389.879 345.062 389.779C344.926 389.679 344.755 389.638 344.588 389.663C338.016 390.051 334.548 388.014 333.627 383.237C333.619 383.15 333.594 383.065 333.552 382.988C333.51 382.911 333.452 382.844 333.383 382.79C333.314 382.737 333.234 382.699 333.149 382.678C333.064 382.657 332.975 382.654 332.889 382.669C332.803 382.684 332.72 382.717 332.648 382.766C332.575 382.815 332.513 382.878 332.466 382.952C332.419 383.026 332.388 383.109 332.375 383.196C332.362 383.282 332.367 383.371 332.39 383.455C332.691 385.55 333.747 387.462 335.359 388.833C336.971 390.204 339.028 390.939 341.144 390.9C340.461 391.205 339.811 391.579 339.204 392.015C338.833 391.656 338.38 391.395 337.883 391.254C337.387 391.113 336.863 391.097 336.359 391.207C335.854 391.317 335.385 391.551 334.993 391.887C334.601 392.222 334.298 392.65 334.112 393.131C333.807 392.69 333.394 392.336 332.911 392.102C332.429 391.869 331.895 391.764 331.36 391.798C330.826 391.832 330.309 392.004 329.86 392.297C329.412 392.59 329.047 392.995 328.801 393.47C328.499 392.974 328.061 392.573 327.54 392.316C327.018 392.059 326.434 391.957 325.856 392.02C325.277 392.084 324.73 392.311 324.276 392.676C323.823 393.04 323.483 393.526 323.296 394.077C322.819 387.864 322.73 381.628 323.029 375.404C329.222 373.937 335.585 373.317 341.944 373.561C341.99 374.875 342.345 376.16 342.982 377.31C343.618 378.461 344.517 379.445 345.606 380.182Z" fill="#00B868"/>
<path d="M379.556 284.346C366.146 287.886 381.593 286.286 409.117 260.653C409.211 260.537 409.263 260.391 409.263 260.241C409.263 260.091 409.211 259.945 409.117 259.829C406.037 254.979 408.923 252.554 410.451 255.706C411.639 258.131 414.476 258.131 414.331 252.117C415.391 251.831 416.429 251.467 417.435 251.026C418.768 265.576 418.235 270.087 416.828 272.051C415.179 273.651 409.966 268.535 408.365 266.91C408.276 266.813 408.158 266.747 408.029 266.72C407.9 266.693 407.766 266.708 407.646 266.761C407.525 266.815 407.425 266.905 407.358 267.018C407.291 267.132 407.262 267.264 407.274 267.395C407.541 272.075 408.462 275.567 412.124 278.21C401.099 279.222 390.194 281.276 379.556 284.346Z" fill="#00B868"/>
<path fill-rule="evenodd" clip-rule="evenodd" d="M94 0H0V94V188V282H94V188H188V94H282V0H188H94Z" fill="#009856" fill-opacity="0.77"/>
<path fill-rule="evenodd" clip-rule="evenodd" d="M792 982L886 982L980 982L980 888L980 794L980 700L980 606L980 512L886 512L886 606L886 607L792 607L792 700L698 700L698 794L604 794L604 888L510 888L510 982L604 982L698 982L792 982ZM886 701L886 794L886 700L886 701Z" fill="#009856" fill-opacity="0.77"/>
<circle cx="707" cy="82" r="42" fill="#FAFAFA"/>
<path d="M720.2 72.6667H715V68.6667C715 67.9333 714.4 67.3333 713.667 67.3333C712.933 67.3333 712.333 67.9333 712.333 68.6667V72.6667H707.133C706.347 72.6667 705.733 73.3467 705.8 74.1333L705.96 75.7467C710.867 76.88 715 80.36 715 86L715.027 96.6667H717.293C718.413 96.6667 719.333 95.8 719.467 94.7067L721.52 74.1333C721.6 73.3467 720.987 72.6667 720.2 72.6667ZM711 94H693.667C692.933 94 692.333 94.6 692.333 95.3333C692.333 96.0667 692.933 96.6667 693.667 96.6667H711C711.733 96.6667 712.333 96.0667 712.333 95.3333C712.333 94.6 711.733 94 711 94ZM693.8 86H710.867C711.693 86 712.347 85.2533 712.187 84.4533C711.32 80.1467 706.827 77.9867 702.333 77.9867C697.84 77.9867 693.36 80.1467 692.48 84.4533C692.32 85.2533 692.987 86 693.8 86ZM711 88.6667H693.667C692.933 88.6667 692.333 89.2667 692.333 90C692.333 90.7333 692.933 91.3333 693.667 91.3333H711C711.733 91.3333 712.333 90.7333 712.333 90C712.333 89.2667 711.733 88.6667 711 88.6667Z" fill="url(#paint0_linear_803_5685)"/>
<circle cx="861" cy="158" r="59" fill="#FAFAFA"/>
<path d="M857 160.667H854.333C852.12 160.667 850.333 158.88 850.333 156.667C850.333 154.453 852.12 152.667 854.333 152.667H857V150C857 147.787 858.787 146 861 146C863.213 146 865 147.787 865 150V152.667H867.667C869.88 152.667 871.667 154.453 871.667 156.667C871.667 158.88 869.88 160.667 867.667 160.667H865V163.333C865 165.547 863.213 167.333 861 167.333C858.787 167.333 857 165.547 857 163.333V160.667ZM859.133 132.027L843.133 138.027C841.053 138.827 839.667 140.8 839.667 143.04V155.573C839.667 169.04 848.76 181.6 861 184.667C873.24 181.6 882.333 169.04 882.333 155.573V143.04C882.332 141.955 881.999 140.896 881.379 140.005C880.76 139.114 879.883 138.433 878.867 138.053L862.867 132.053C861.667 131.573 860.333 131.573 859.133 132.027Z" fill="url(#paint1_linear_803_5685)"/>
<circle cx="103" cy="774" r="42" fill="#FAFAFA"/>
<path d="M96.3334 782C94.8667 782 93.68 783.2 93.68 784.667C93.68 786.133 94.8667 787.333 96.3334 787.333C97.8 787.333 99 786.133 99 784.667C99 783.2 97.8 782 96.3334 782ZM88.3334 762C88.3334 762.733 88.9334 763.333 89.6667 763.333H91L95.8 773.453L94 776.707C93.0267 778.493 94.3067 780.667 96.3334 780.667H111C111.733 780.667 112.333 780.067 112.333 779.333C112.333 778.6 111.733 778 111 778H96.3334L97.8 775.333H107.733C108.733 775.333 109.613 774.787 110.067 773.96L114.84 765.307C114.952 765.105 115.01 764.877 115.007 764.645C115.005 764.414 114.941 764.188 114.824 763.988C114.707 763.789 114.54 763.624 114.339 763.509C114.138 763.394 113.911 763.333 113.68 763.333H93.9467L93.0534 761.427C92.9462 761.199 92.7764 761.007 92.5639 760.872C92.3514 760.738 92.1049 760.666 91.8534 760.667H89.6667C88.9334 760.667 88.3334 761.267 88.3334 762ZM109.667 782C108.2 782 107.013 783.2 107.013 784.667C107.013 786.133 108.2 787.333 109.667 787.333C111.133 787.333 112.333 786.133 112.333 784.667C112.333 783.2 111.133 782 109.667 782Z" fill="url(#paint2_linear_803_5685)"/>
</g>
<defs>
<linearGradient id="paint0_linear_803_5685" x1="691.969" y1="64.95" x2="707.054" y2="96.6077" gradientUnits="userSpaceOnUse">
<stop offset="0.239583" stop-color="#00A35C"/>
<stop offset="0.911458" stop-color="#00D93D"/>
</linearGradient>
<linearGradient id="paint1_linear_803_5685" x1="839.134" y1="127.386" x2="869.809" y2="179.48" gradientUnits="userSpaceOnUse">
<stop offset="0.239583" stop-color="#00A35C"/>
<stop offset="0.911458" stop-color="#00D93D"/>
</linearGradient>
<linearGradient id="paint2_linear_803_5685" x1="88" y1="758.5" x2="101.67" y2="787.333" gradientUnits="userSpaceOnUse">
<stop offset="0.239583" stop-color="#00A35C"/>
<stop offset="0.911458" stop-color="#00D93D"/>
</linearGradient>
<clipPath id="clip0_803_5685">
<rect width="1512" height="982" fill="white" transform="translate(-532)"/>
</clipPath>
</defs>
</svg>
